<svg id="Layer_1" data-name="Layer 1" xmlns="http://www.w3.org/2000/svg" viewBox="0 0 32 32"><defs><style>.cls-1{fill:#aaa;}</style></defs><title>Ideaab_airports</title><path class="cls-1" d="M3.26,18.28h0a.75.75,0,0,0,.58,1.38l10.49-3.49-2,3.2a.61.61,0,0,0,.8.86l2.06-1.07a.6.6,0,0,0,.16-.12l6.09-6.37L29,8.75c2.85-1.54,2.52-2.72,2.35-3a1.61,1.61,0,0,0-1.07-.77,6.39,6.39,0,0,0-2.73,0,3.53,3.53,0,0,1-.84.06c-.81,0-1.35,0-4.06,1.44L7.82,14.19l-5.75-3a.75.75,0,0,0-.69,0l-1,.5a.75.75,0,0,0-.24,1.14l4,5Z"/><path class="cls-1" d="M30.57,24.32H2.49a1.43,1.43,0,0,0,0,2.86H30.57a1.43,1.43,0,1,0,0-2.86Z"/></svg>