<?xml version="1.0" encoding="utf-8"?>
<!-- Generator: Adobe Illustrator 19.1.1, SVG Export Plug-In . SVG Version: 6.00 Build 0)  -->
<svg version="1.1" id="Layer_1" xmlns="http://www.w3.org/2000/svg" xmlns:xlink="http://www.w3.org/1999/xlink" x="0px" y="0px"
	 viewBox="0 0 326.2 205.2" style="enable-background:new 0 0 326.2 205.2;" xml:space="preserve">
<style type="text/css">
	.st0{fill:#FEFEFE;}
	.st1{fill:#F6FCFC;}
	.st2{fill:#03C3A6;}
	.st3{fill:#0ABCC1;}
	.st4{fill:#04BFB2;}
	.st5{fill:#00BEB3;}
	.st6{fill:#F8FDFC;}
	.st7{fill:#1AC0C5;}
	.st8{fill:#2AC8C1;}
	.st9{fill:#FDFEFE;}
	.st10{fill:#40CFC2;}
	.st11{fill:#4ED0CD;}
	.st12{fill:#00BDB5;}
	.st13{fill:#3FCCC9;}
	.st14{fill:none;stroke:#2173B9;stroke-width:2;stroke-miterlimit:10;}
	.st15{fill:#2173B9;}
</style>
<g>
	<path class="st0" d="M477.7,89c-17.5,0-35,0-52.4,0c-2.6,0-3.8,0-3.8-3.4c0.2-26.1,0.2-52.3,0-78.4c0-2.8,0.5-3.3,3.3-3.3
		c35.5,0.1,70.9,0.1,106.4,0c2.5,0,3.5,0.1,3.5,3.2c-0.2,26.3-0.1,52.6,0,78.9c0,2.5-0.5,3.1-3.1,3.1C513.7,89,495.7,89,477.7,89z
		 M514.7,54.1c-2.4-0.6-2.2-2.5-2.2-4.3c0-5.6-0.1-11.2-0.2-16.8c0.1-3.5,0.3-7,0.2-10.5c-0.2-5.2-3-8.5-7.8-8.5
		c-21.8-0.1-43.6-0.1-65.3,0c-4.7,0-7.6,3.3-7.7,8c-0.1,4,0.1,8,0.1,12c0,8.7,0,17.3,0,26c0.2,6.7,2.5,9,9,9c17,0,34,0.1,51,0
		c3.5,0,5.8,0.2,7.4,4.4c2.5,6.4,10.4,9,16.8,6.6c6.6-2.5,10.5-9.8,8.4-16.6c-0.4-1.3-0.1-4.3-3.3-3.4c-2.1-0.4-2.9-2.3-4.5-3.4
		C518.2,53.9,516.1,54.3,514.7,54.1z"/>
	<path class="st1" d="M516.7,56.6c1.5,1.1,2.4,3.1,4.5,3.4c1.7,5.2,2.8,10.3-1.4,14.9c-3.7,4.1-9.7,5-14.4,2.2
		c-5.3-3.2-6.8-8.4-4.5-15.7c1.1-1.5,2.9-2.3,3.3-4.3c0.5-0.2,1.1-0.4,1.6-0.6c2.9-0.6,5.8-1.7,8.8-0.6
		C515.3,56.1,516,56.3,516.7,56.6z M518.3,64c-0.3-0.4-0.7-0.7-1-1.1c-1.8,1.8-3.7,3.6-5.5,5.4c-3.1,3-3.7-3.3-6.9-1.5
		c2,2.1,2.9,6.5,6.7,4.5C514.2,69.9,516.8,67.1,518.3,64z"/>
	<path class="st2" d="M431.8,34c-0.1-4-0.2-8-0.1-12c0.1-4.7,2.9-7.9,7.7-8c21.8-0.1,43.6-0.1,65.3,0c4.8,0,7.5,3.2,7.8,8.5
		c0.2,3.5-0.1,7-0.2,10.5c-0.8,0-1.6,0-2.5,0c0.4-3.9-0.9-5.2-5.2-5.1c-21.6,0.3-43.2,0.3-64.8,0c-5-0.1-7,1.2-6.3,6.1
		C433,34,432.4,34,431.8,34z M471.5,27c10.8,0,21.6,0,32.5,0c6.1,0,6.4-0.4,5.7-6.4c-0.5-4-3.3-4.5-6.5-4.6c-20.6,0-41.3,0-61.9,0
		c-1.1,0-2.4,0-3.4,0.4c-4.2,1.5-4.4,5.2-3.9,8.7c0.5,3.5,3.5,1.7,5.2,1.8C449.9,27.1,460.7,27,471.5,27z"/>
	<path class="st3" d="M500.9,61.4c-2.3,7.2-0.8,12.5,4.5,15.7c4.7,2.8,10.7,1.9,14.4-2.2c4.2-4.6,3.1-9.7,1.4-14.9
		c3.2-0.9,2.9,2.1,3.3,3.4c2.1,6.8-1.8,14.1-8.4,16.6c-6.4,2.4-14.3-0.2-16.8-6.6c-1.6-4.1-3.9-4.4-7.4-4.4c-17,0.1-34,0.1-51,0
		c-6.5,0-8.8-2.3-9-9c0.6,0,1.2,0,1.7,0c0.4,5.1,2.9,7.2,8.2,7.1c15.1-0.2,30.3-0.2,45.4,0c5.8,0.1,11.5,1,12.5-7.1
		C500.1,60.5,500.5,60.9,500.9,61.4z"/>
	<path class="st4" d="M509.8,33c0.8,0,1.6,0,2.5,0c0.1,5.6,0.2,11.2,0.2,16.8c0,1.8-0.2,3.7,2.2,4.3c0,0.6-0.1,1.1-0.1,1.7
		c-3-1-5.9,0-8.8,0.6c0.2-2.8,4.7-2,4.3-5.4c-0.4-4.3,0.5-8.6-0.5-12.8c0-0.4,0-0.8,0-1.2C509.7,35.6,509.8,34.3,509.8,33z"/>
	<path class="st5" d="M433.6,60c-0.6,0-1.2,0-1.7,0c0-8.7,0-17.3,0-26c0.6,0,1.1,0,1.7,0c0.1,0.9,0.2,1.9,0.2,2.8
		c0,0.5,0.1,1,0.1,1.5C433.8,45.6,433.7,52.8,433.6,60z"/>
	<path class="st3" d="M514.5,55.8c0-0.6,0.1-1.1,0.1-1.7c1.4,0.2,3.6-0.2,2,2.5C516,56.3,515.3,56.1,514.5,55.8z"/>
	<path class="st6" d="M433.6,60c0.1-7.2,0.2-14.4,0.4-21.6c25.2-0.1,50.4-0.1,75.7-0.2c1.1,4.2,0.1,8.6,0.5,12.8
		c0.3,3.4-4.1,2.6-4.3,5.4c-0.6,0.2-1.1,0.4-1.6,0.6c-3-1.3-3.4,1.4-4.5,3c-1,8-6.8,7.1-12.5,7.1c-15.1-0.2-30.3-0.2-45.4,0
		C436.5,67.2,433.9,65.1,433.6,60z M498.6,56.1c2.3-6,1.8-7-4-7.1c-2.7,0-5.3,0-8,0c-5.7,0-6.3,1-4,7
		C488,56.5,493.3,56.5,498.6,56.1z M445.2,55.4c0,0.3,0,0.5,0,0.8c6.7,0,13.4,0,20,0c0-0.3,0-0.5,0-0.8
		C458.5,55.4,451.8,55.4,445.2,55.4z M445.4,49.3c0,0.2,0,0.3,0,0.5c7.9,0,15.8,0,23.7,0c0-0.2,0-0.3,0-0.5
		C461.2,49.3,453.3,49.3,445.4,49.3z"/>
	<path class="st7" d="M518.3,64c-1.5,3.2-4.1,5.9-6.8,7.4c-3.8,2-4.6-2.4-6.7-4.5c3.2-1.8,3.8,4.5,6.9,1.5c1.8-1.8,3.7-3.6,5.5-5.4
		C517.6,63.2,517.9,63.6,518.3,64z"/>
	<path class="st8" d="M499.7,60c1.1-1.6,1.4-4.3,4.5-3c-0.3,2-2.2,2.9-3.3,4.3C500.5,60.9,500.1,60.5,499.7,60z"/>
	<path class="st9" d="M471.5,27c-10.8,0-21.6,0.1-32.5-0.1c-1.8,0-4.8,1.7-5.2-1.8c-0.5-3.5-0.2-7.2,3.9-8.7
		c1.1-0.4,2.3-0.4,3.4-0.4c20.6,0,41.3,0,61.9,0c3.2,0,6,0.6,6.5,4.6c0.8,6,0.4,6.4-5.7,6.4C493.2,27,482.3,27,471.5,27z"/>
	<path class="st0" d="M433.8,36.8c-0.1-0.9-0.2-1.9-0.2-2.8c-0.7-4.9,1.3-6.2,6.3-6.1c21.6,0.3,43.2,0.3,64.8,0
		c4.3-0.1,5.6,1.3,5.2,5.1c-0.1,1.3-0.1,2.6-0.2,3.9C484.3,36.9,459.1,36.9,433.8,36.8z"/>
	<path class="st10" d="M433.8,36.8c25.3,0,50.6,0.1,75.8,0.1c0,0.4,0,0.8,0,1.2c-25.2,0.1-50.4,0.1-75.7,0.2
		C433.9,37.9,433.8,37.3,433.8,36.8z"/>
	<path class="st11" d="M445.2,55.4c6.7,0,13.4,0,20,0c0,0.3,0,0.5,0,0.8c-6.7,0-13.4,0-20,0C445.2,55.9,445.2,55.6,445.2,55.4z"/>
	<path class="st12" d="M482.7,56.1c-2.3-6-1.8-7,4-7c2.7,0,5.3,0,8,0c5.7,0,6.3,1,4,7c0-0.4,0-0.8-0.1-1.2c0.7-3.6-0.3-5.5-4.5-4.9
		c-2.3,0.3-4.6,0.3-6.9,0c-4.2-0.6-5.2,1.3-4.5,4.9C482.7,55.3,482.7,55.7,482.7,56.1z"/>
	<path class="st12" d="M445.4,49.3c7.9,0,15.8,0,23.7,0c0,0.2,0,0.3,0,0.5c-7.9,0-15.8,0-23.7,0C445.4,49.6,445.4,49.4,445.4,49.3z"
		/>
	<path class="st13" d="M482.7,56.1c0-0.4,0-0.8,0.1-1.2c5.3,0,10.6,0,15.8,0c0,0.4,0,0.8,0.1,1.2C493.3,56.5,488,56.5,482.7,56.1z"
		/>
	<path class="st0" d="M498.6,54.9c-5.3,0-10.6,0-15.8,0c-0.7-3.6,0.3-5.5,4.5-4.9c2.3,0.3,4.6,0.3,6.9,0
		C498.3,49.4,499.3,51.3,498.6,54.9z"/>
</g>
<path class="st14" d="M312.7,166.5c0,20.1-16.3,36.3-36.3,36.3S240,186.6,240,166.5c0-0.2,0-0.3,0-0.5c0.2-17.7,13.1-32.3,30-35.3
	c2-0.4,4.2-0.5,6.3-0.5C296.4,130.2,312.7,146.4,312.7,166.5z"/>
<path class="st14" d="M270.3,25.5v105.2c-17,3-30.1,17.5-30.3,35.5H23.3c-6.6,0-12-5.5-12-12.1V25.5c0-6.6,5.4-12.3,12-12.3H258
	C264.6,13.2,270.3,18.9,270.3,25.5z"/>
<path class="st14" d="M223.7,139.2h-62.8c-6.6,0-12-5.4-12-12V112c0-6.6,5.4-12,12-12h62.8c6.6,0,12,5.4,12,12v15.1
	C235.7,133.8,230.3,139.2,223.7,139.2z"/>
<line class="st14" x1="11.3" y1="48.2" x2="270.3" y2="48.2"/>
<line class="st14" x1="11.3" y1="78.2" x2="270.3" y2="78.2"/>
<line class="st14" x1="41.3" y1="139.2" x2="109.3" y2="139.2"/>
<line class="st14" x1="27.3" y1="125.2" x2="125.3" y2="125.2"/>
<line class="st14" x1="11.3" y1="48.2" x2="270.3" y2="48.2"/>
<polygon class="st15" points="268.3,171.4 273.7,179.1 307.3,155.9 274.1,175.6 266,167.5 "/>
</svg>
