<?xml version="1.0" encoding="utf-8"?>
<!-- Generator: Adobe Illustrator 19.1.1, SVG Export Plug-In . SVG Version: 6.00 Build 0)  -->
<svg version="1.1" id="Layer_1" xmlns="http://www.w3.org/2000/svg" xmlns:xlink="http://www.w3.org/1999/xlink" x="0px" y="0px"
	 viewBox="0 0 265 197" style="enable-background:new 0 0 265 197;" xml:space="preserve">
<style type="text/css">
	.st0{fill:#EEEEEE;}
	.st1{fill:#313034;}
</style>
<path class="st0" d="M133.2,177.6c-23.8,0-47.6,0-71.5,0c-21.8,0-41.8-15.6-46.7-36.9c-3.2-14.2,0.2-27.1,9.7-38.1
	c8.3-9.6,18.6-16,31.6-17c3.5-0.3,3-2.7,2.6-4.6c-2.3-11.4,2.7-20,11.1-26.4c8.3-6.3,18.2-8.3,28.3-4.2c4.1,1.7,6.1,0.9,8.5-2.8
	c11.4-17.3,27.3-27,48.3-28c19.4-1,35.4,5.9,48.5,20c9.1,9.9,14.3,21.5,14.5,35c0,3.6,0.9,5.5,4.6,6.9c17.8,6.7,28.4,19.7,32.5,38.4
	c5.1,23.4-13,48.9-35.4,55.1c-6.5,1.8-12.9,2.7-19.6,2.7C177.9,177.5,155.6,177.6,133.2,177.6z M169,99.6
	c-6.5-7.9-14.5-14.1-21.7-21.3c-2.7-2.7-5.4-7.1-8.4-7.4c-3.4-0.3-5.9,4.7-8.8,7.4c-8,7.4-15.8,15-24.6,23.4c4.8,0,8.2,0,11.6,0
	c7.6,0.1,6.7-1,6.8,6.5c0,11.2,0.1,22.3-0.1,33.5c0,3,0.6,4,3.8,3.9c7.3-0.3,14.7-0.2,22,0c3.1,0.1,3.9-0.7,3.9-3.9
	c-0.2-9.5-0.1-19-0.1-28.5c0-11.4,0-11.4,11.2-11.6c0.8,0,1.7-0.1,2.5-0.2c1.2,0.1,2.4,0.6,3.5-0.4
	C170.1,100.6,169.5,100.1,169,99.6z"/>
<path class="st1" d="M-200,54.9c0-1.2,0.6-1.9,1.8-1.9c0.6,0.5,1.1,1,1.7,1.5C-197.6,55.6-198.8,55-200,54.9z"/>
</svg>
