<svg id="Layer_1" data-name="Layer 1" xmlns="http://www.w3.org/2000/svg" viewBox="0 0 500 250"><defs><style>.cls-1{fill:#ddd;}</style></defs><title>IdeaArtboard 1</title><path class="cls-1" d="M325,125a75,75,0,1,0-125.66,55.25l-.07.06,2.43,2.05c.16.13.33.24.49.37,1.29,1.07,2.63,2.09,4,3.07l1.33.95q2.18,1.51,4.48,2.86l1,.58c1.67,1,3.38,1.85,5.13,2.67l.39.17a74.32,74.32,0,0,0,18.14,5.74l.5.09c2,.34,4,.61,6,.8l.74.06c2,.17,4,.27,6.11.27s4.06-.11,6.06-.27l.76-.06q3-.27,5.94-.78l.51-.09a74.32,74.32,0,0,0,17.88-5.6l.62-.28q2.52-1.19,4.94-2.55l1.2-.69c1.47-.86,2.91-1.77,4.31-2.73.5-.34,1-.71,1.5-1.07,1.2-.86,2.37-1.75,3.52-2.68.25-.2.53-.38.77-.59l2.5-2.08-.07-.06A74.81,74.81,0,0,0,325,125Zm-144.55,0a69.55,69.55,0,1,1,115.67,52,20.44,20.44,0,0,0-2.44-1.46L270.59,164a6,6,0,0,1-3.36-5.44v-8.06c.53-.66,1.1-1.41,1.68-2.23a55.58,55.58,0,0,0,7.13-14,9.9,9.9,0,0,0,5.69-9v-9.67a9.92,9.92,0,0,0-2.42-6.46V96.45a22,22,0,0,0-5.14-16c-5-5.74-13.16-8.64-24.18-8.64s-19.16,2.9-24.18,8.64a22,22,0,0,0-5.14,16v12.73a9.94,9.94,0,0,0-2.42,6.46v9.67a9.92,9.92,0,0,0,3.65,7.69,51.25,51.25,0,0,0,8.44,17.42v7.89a6.08,6.08,0,0,1-3.17,5.34l-21.56,11.76a19.71,19.71,0,0,0-2.05,1.3A69.38,69.38,0,0,1,180.45,125Z"/></svg>