<svg id="Layer_1" data-name="Layer 1" xmlns="http://www.w3.org/2000/svg" viewBox="0 0 300 55.78"><defs><style>.cls-1{fill:#0065a6;}.cls-2{fill:#00aae3;}</style></defs><title>xcam</title><polygon class="cls-1" points="50.16 0.01 76.66 27.98 50.16 55.78 0 55.78 50.16 0.01"/><polygon class="cls-2" points="24.31 25.11 0 0 46.88 0.01 24.31 25.11"/><path class="cls-1" d="M112.05,177.14A25.66,25.66,0,0,1,101.56,175a25.85,25.85,0,0,1-13.89-14.6,30,30,0,0,1-2-11,29,29,0,0,1,2-10.9,24.19,24.19,0,0,1,5.53-8.4,24.87,24.87,0,0,1,8.36-5.38,28.28,28.28,0,0,1,10.49-1.9h29.42v9.48H112.05a17.23,17.23,0,0,0-6.76,1.31,16,16,0,0,0-5.34,3.62,16.64,16.64,0,0,0-3.51,5.53,19.12,19.12,0,0,0-1.27,7.09A19.49,19.49,0,0,0,96.45,157a16.87,16.87,0,0,0,3.51,5.64,16.16,16.16,0,0,0,5.34,3.7,16.8,16.8,0,0,0,6.76,1.34h29.42v9.48Z" transform="translate(0 -122.11)"/><path class="cls-1" d="M205.77,177.14l-8.14-13.66H171.94l4.48-7.69h16.65L181,135.48l-24.64,41.67H145.5l31.21-52a7.17,7.17,0,0,1,1.94-2.24,4.42,4.42,0,0,1,2.69-.82,4.26,4.26,0,0,1,2.65.82,7.46,7.46,0,0,1,1.9,2.24l31.29,52Z" transform="translate(0 -122.11)"/><path class="cls-1" d="M290.59,177.14,280.21,139l-15.38,35.32a7.49,7.49,0,0,1-2,2.65,4.44,4.44,0,0,1-2.87.93q-3.36,0-4.85-3.58L239.82,139l-10.38,38.16H220.1l14-51.08q1-3.88,4.7-3.88a5.17,5.17,0,0,1,2.8.82,5.11,5.11,0,0,1,2,2.39l16.73,38.38L277,125.4a4.66,4.66,0,0,1,4.56-3.21q3.43,0,4.55,3.88L300,177.14Z" transform="translate(0 -122.11)"/></svg>