<?xml version="1.0"?>
<svg xmlns="http://www.w3.org/2000/svg" viewBox="0 -16 512 512" width="512px" height="512px"><path d="m512 435v-15h-180v15c0 24.8125 20.1875 45 45 45h90c24.8125 0 45-20.1875 45-45zm0 0" fill="#2173b9"/><path d="m332 270h180v120h-180zm0 0" fill="#2173b9"/><path d="m512 225c0-24.8125-20.1875-45-45-45h-90c-24.8125 0-45 20.1875-45 45v15h180zm0 0" fill="#2173b9"/><path d="m302 225c0-41.351562 33.648438-75 75-75h90c16.949219 0 32.425781 5.863281 45 15.382812v-120.382812c0-24.8125-20.1875-45-45-45h-422c-24.8125 0-45 20.1875-45 45v255h302c0-3.335938 0-75 0-75zm0 0" fill="#2173b9"/><path d="m45 390h257v-60h-302v15c0 24.8125 20.1875 45 45 45zm0 0" fill="#2173b9"/><path d="m302 435v-15h-136.804688l-10 30h-49.195312c-8.289062 0-15 6.710938-15 15s6.710938 15 15 15h211.382812c-9.519531-12.574219-15.382812-28.050781-15.382812-45zm0 0" fill="#2173b9"/></svg>
