<svg id="Layer_1" data-name="Layer 1" xmlns="http://www.w3.org/2000/svg" viewBox="0 0 32 32"><defs><style>.cls-1{fill:#aaa;}</style></defs><title>Ideaab_apu</title><path class="cls-1" d="M22.54,15.78a.94.94,0,0,0-.62-.67l-4.6-1.53L20.59,7A.94.94,0,0,0,19.09,6L9.71,15.34a.94.94,0,0,0,.37,1.55l4.6,1.53L11.41,25A.94.94,0,0,0,12.91,26l9.38-9.37A.94.94,0,0,0,22.54,15.78Z"/><path class="cls-1" d="M16,0A16.11,16.11,0,0,0,3.75,5.78v-1a.94.94,0,0,0-1.87,0v4c0,.89,1.16,1,.94.94h.06l3.75-.23A.94.94,0,1,0,6.5,7.56l-1.9.12A14.11,14.11,0,0,1,30.13,16,.94.94,0,0,0,32,16,16.06,16.06,0,0,0,16,0Z"/><path class="cls-1" d="M29.13,22.33l-3.75.23a.94.94,0,0,0-.88,1,1,1,0,0,0,1,.88l1.9-.12A14.11,14.11,0,0,1,1.88,16,.94.94,0,0,0,0,16,16.06,16.06,0,0,0,16,32a16.11,16.11,0,0,0,12.25-5.78v1a.94.94,0,0,0,1.88,0v-4A1,1,0,0,0,29.13,22.33Z"/></svg>