<svg id="Layer_1" data-name="Layer 1" xmlns="http://www.w3.org/2000/svg" viewBox="0 0 32 32"><defs><style>.cls-1{fill:#aaa;}</style></defs><title>Ideaab_companies</title><path class="cls-1" d="M28,2.78v-2H13.33v2H9.27v7.6a8.35,8.35,0,0,1,5.4,7.8c0,1.88-1.24,5-3.8,9.43-.36.62-.71,1.23-1.06,1.8h9.93V23.3h2v6.13H32V2.8ZM19.53,21.21h-3.8v-2h3.8Zm0-4h-3.8v-2h3.8Zm0-3.91h-3.8v-2h3.8Zm0-4h-3.8v-2h3.8Zm6.2,11.91h-3.8v-2h3.8Zm0-4h-3.8v-2h3.8Zm0-3.91h-3.8v-2h3.8Zm0-4h-3.8v-2h3.8Z"/><path class="cls-1" d="M6.33,16.19a2,2,0,1,0,2,2A2,2,0,0,0,6.33,16.19Z"/><path class="cls-1" d="M6.33,11.86A6.34,6.34,0,0,0,0,18.19c0,2.71,4,9.46,6.33,13,2.32-3.57,6.33-10.32,6.33-13A6.34,6.34,0,0,0,6.33,11.86Zm0,10.33a4,4,0,1,1,4-4A4,4,0,0,1,6.33,22.19Z"/></svg>