<svg xmlns="http://www.w3.org/2000/svg" viewBox="0 0 24 24"><defs><style>.a{fill:#ddd;}</style></defs><title>Airbook User Login Icon</title><path class="a" d="M24,12A12,12,0,1,0,3.89,20.84h0l.39.33.08.06c.21.17.42.33.64.49l.21.15q.35.24.72.46l.16.09c.27.15.54.3.82.43l.06,0a11.89,11.89,0,0,0,2.9.92h.08c.32.05.64.1,1,.13H11c.32,0,.65,0,1,0s.65,0,1,0h.12q.48,0,1-.13h.08a11.89,11.89,0,0,0,2.86-.9l.1,0q.4-.19.79-.41l.19-.11c.23-.14.47-.28.69-.44l.24-.17.56-.43.12-.09.4-.33h0A12,12,0,0,0,24,12ZM.87,12a11.13,11.13,0,1,1,18.51,8.32,3.27,3.27,0,0,0-.39-.23l-3.69-1.85a1,1,0,0,1-.54-.87V16.08l.27-.36a8.89,8.89,0,0,0,1.14-2.24A1.58,1.58,0,0,0,17.08,12V10.5a1.59,1.59,0,0,0-.39-1v-2a3.52,3.52,0,0,0-.82-2.56A4.91,4.91,0,0,0,12,3.49,4.91,4.91,0,0,0,8.13,4.87a3.52,3.52,0,0,0-.82,2.56v2a1.59,1.59,0,0,0-.39,1V12a1.59,1.59,0,0,0,.58,1.23,8.2,8.2,0,0,0,1.35,2.79v1.26a1,1,0,0,1-.51.85L4.9,20.07l-.33.21A11.1,11.1,0,0,1,.87,12Z"/></svg>