<svg xmlns="http://www.w3.org/2000/svg" viewBox="0 0 1200 630"><defs><style>.a{fill:#068dff;}.b{fill:#f2f2f2;}.c{font-size:16px;fill:#fff;font-family:Montserrat-Regular, Montserrat;}</style></defs><title>abArtboard 1</title><rect class="a" width="1200" height="630"/><path class="b" d="M483.27,343.74l-11-1.41a43.79,43.79,0,0,1-14,2.07c-11.08,0-22.07-3.47-23.86-10.24a43.21,43.21,0,0,1-1.22-10.8,45,45,0,0,1,1.22-10.89c1.69-6.86,12.68-10.33,23.76-10.33s22.16,3.48,23.95,10.52a40.61,40.61,0,0,1,1.13,9.86Zm-11-20.57a48.57,48.57,0,0,0-.66-8.55c-1-5.63-7.14-8.45-13.43-8.45-6.1,0-12.4,2.82-13.34,8.36a59.6,59.6,0,0,0,0,17.66c.94,5.45,7.23,8.26,13.43,8.26,5.17,0,10.33-.94,14-3Z"/><path class="b" d="M503.83,294.43c-.85,3.85-11.74,3.76-12.68.19a15.18,15.18,0,0,1,0-5.82c.94-3.66,11.74-3.66,12.68.09A11.08,11.08,0,0,1,503.83,294.43ZM492,343.74V303.26l11,1.5v39Z"/><path class="b" d="M522.9,343.74h-11V303.26l10.14,1.31a42.42,42.42,0,0,1,14.65-2.44c1.41,0,2.82.09,4.23.19v3.94c-1.31-.09-2.63-.19-3.94-.19-6.2,0-12.49,2.82-13.43,8.45a59.69,59.69,0,0,0-.66,8.55v20.66Z"/><path class="b" d="M548.72,285.23l11,1.41v17.84a44.79,44.79,0,0,1,14.09-2.07c11,0,22.07,3.47,23.76,10.24a43.75,43.75,0,0,1,1.22,10.8,44.53,44.53,0,0,1-1.22,10.89c-1.79,6.95-12.77,10.42-23.76,10.42s-22.07-3.57-23.86-10.61a37.86,37.86,0,0,1-1.22-10.61Zm11,38.32a49.72,49.72,0,0,0,.66,8.64c1,5.73,7.14,8.55,13.43,8.55s12.3-2.82,13.34-8.45a58.89,58.89,0,0,0,0-17.56c-.94-5.45-7.14-8.36-13.34-8.36-5.26,0-10.43,1-14.09,3Z"/><path class="b" d="M655.22,333.78c-3.47,14.37-44.24,13.9-47.71.38a49.74,49.74,0,0,1,0-21.69c3.47-13.81,44.24-13.81,47.71.19A48.62,48.62,0,0,1,655.22,333.78Zm-37.28-19.25a61.76,61.76,0,0,0,0,17.66c2,10.89,24.89,11.27,26.86-.38a55.49,55.49,0,0,0-.09-17.19C642.73,303.26,619.91,303.35,617.93,314.53Z"/><path class="b" d="M713.35,333.78c-3.48,14.37-44.24,13.9-47.71.38a49.77,49.77,0,0,1,0-21.69c3.47-13.81,44.23-13.81,47.71.19A48.64,48.64,0,0,1,713.35,333.78Zm-37.28-19.25a61.7,61.7,0,0,0,0,17.66c2,10.89,24.89,11.27,26.86-.38a55.44,55.44,0,0,0-.09-17.19C700.86,303.26,678,303.35,676.07,314.53Z"/><path class="b" d="M734.48,286.64V327l16.72,16.72h15.59L745.09,322l17.84-17.94H757.4L734.48,327v16.72h-11V285.23Z"/><text class="c" transform="translate(498.59 391.9)">The Aviation Marketplace</text></svg>