<svg id="Layer_1" data-name="Layer 1" xmlns="http://www.w3.org/2000/svg" viewBox="0 0 32 32"><defs><style>.cls-1{fill:#aaa;}</style></defs><title>Ideaab_parts</title><path class="cls-1" d="M31.83,13.24A.66.66,0,0,0,31.4,13l-3.81-.58a12.55,12.55,0,0,0-.85-2q.37-.52,1.12-1.47T28.92,7.5A.8.8,0,0,0,29.08,7a.67.67,0,0,0-.15-.46A28.47,28.47,0,0,0,25.5,3,.8.8,0,0,0,25,2.81a.68.68,0,0,0-.5.19l-3,2.23a12.88,12.88,0,0,0-1.87-.77L19.06.62a.62.62,0,0,0-.24-.45A.79.79,0,0,0,18.31,0H13.69a.7.7,0,0,0-.75.58,34,34,0,0,0-.6,3.87,11.92,11.92,0,0,0-1.9.79L7.56,3A.89.89,0,0,0,7,2.81q-.46,0-2,1.49A20.76,20.76,0,0,0,3,6.54.88.88,0,0,0,2.81,7a.78.78,0,0,0,.21.5q1.4,1.69,2.23,2.88a10.27,10.27,0,0,0-.81,1.92L.56,12.9a.63.63,0,0,0-.4.27.8.8,0,0,0-.17.48v4.63a.79.79,0,0,0,.17.49A.66.66,0,0,0,.6,19l3.81.56a10.29,10.29,0,0,0,.85,2.06q-.37.52-1.12,1.47T3.08,24.5a.8.8,0,0,0-.17.48.81.81,0,0,0,.15.48A27.45,27.45,0,0,0,6.5,29a.72.72,0,0,0,.52.23A.75.75,0,0,0,7.54,29l2.94-2.23a12.92,12.92,0,0,0,1.88.77l.58,3.83a.62.62,0,0,0,.24.45.79.79,0,0,0,.51.18h4.62a.7.7,0,0,0,.75-.58,34.14,34.14,0,0,0,.6-3.87,11.9,11.9,0,0,0,1.9-.79L24.44,29a1,1,0,0,0,.54.19q.46,0,2-1.48A21,21,0,0,0,29,25.46a.7.7,0,0,0,.19-.48.8.8,0,0,0-.21-.52q-1.5-1.83-2.23-2.88a13.36,13.36,0,0,0,.81-1.9l3.85-.58a.64.64,0,0,0,.42-.27.8.8,0,0,0,.17-.48V13.73A.78.78,0,0,0,31.83,13.24ZM19.77,19.77A5.14,5.14,0,0,1,16,21.33,5.33,5.33,0,0,1,10.67,16,5.33,5.33,0,0,1,16,10.67,5.33,5.33,0,0,1,21.33,16,5.14,5.14,0,0,1,19.77,19.77Z"/></svg>