<svg id="Layer_1" data-name="Layer 1" xmlns="http://www.w3.org/2000/svg" viewBox="0 0 256 256"><defs><style>.cls-1{fill:#f9f9f9;}</style></defs><title>IdeaAirbook_brand</title><path class="cls-1" d="M125.69,198l-26.76-3.43c-9.84,3.43-22,5-34.09,5-27,0-53.76-8.46-58.1-24.94a105.24,105.24,0,0,1-3-26.31,109.72,109.72,0,0,1,3-26.54c4.12-16.7,30.88-25.16,57.88-25.16s54,8.47,58.33,25.62a98.92,98.92,0,0,1,2.74,24ZM98.93,147.9a118.22,118.22,0,0,0-1.6-20.82c-2.52-13.73-17.39-20.59-32.71-20.59-14.87,0-30.2,6.86-32.48,20.36a126.53,126.53,0,0,0-1.6,21.5,126.52,126.52,0,0,0,1.6,21.5C34.41,183.13,49.74,190,64.84,190c12.58,0,25.16-2.29,34.09-7.32Z"/><path class="cls-1" d="M130.31,55.48l26.76,3.43v43.47c10.06-3.43,22.19-5,34.31-5,26.76,0,53.76,8.46,57.87,24.93a106.53,106.53,0,0,1,3,26.31,108.38,108.38,0,0,1-3,26.53c-4.35,16.93-31.11,25.39-57.87,25.39-27,0-53.76-8.69-58.1-25.85a92.17,92.17,0,0,1-3-25.85Zm26.76,93.33a121.07,121.07,0,0,0,1.6,21c2.52,14,17.38,20.82,32.71,20.82,15.1,0,30-6.86,32.48-20.59a126.55,126.55,0,0,0,1.6-21.5,125.61,125.61,0,0,0-1.6-21.28C221.59,114,206.49,107,191.39,107c-12.81,0-25.39,2.52-34.31,7.32Z"/></svg>