<svg id="Layer_1" data-name="Layer 1" xmlns="http://www.w3.org/2000/svg" viewBox="0 0 770.71 159.61"><defs><style>.cls-1{fill:#b2b6ba;}.cls-2{fill:#0065a6;}.cls-3{fill:#00aae3;}</style></defs><title>XBS Company Logo</title><polygon class="cls-1" points="372.74 159.61 332.9 159.61 276.75 101.59 220.83 159.61 180.99 159.61 258.34 80.16 180.99 0.24 219.43 0.24 276.75 58.95 334.07 0.24 372.74 0.24 295.16 80.16 372.74 159.61"/><path class="cls-1" d="M826.14,433.2A38.76,38.76,0,0,1,821,452.54q-15.38,26.79-58.25,26.79H648.59V320.2H762.77q40.78,0,57.09,25.4a41.16,41.16,0,0,1,6.29,21.9q0,19.8-16.78,33.32,16.78,13,16.78,32.39Zm-26.8-65.94q0-10-11.65-15.38a51.44,51.44,0,0,0-20.74-4H676.32V451.61H767a54.9,54.9,0,0,0,20.27-3.5q12.11-5.13,12.12-14.68,0-9.78-12.12-14.91A52.94,52.94,0,0,0,767,414.79H692.63V387.07H767a49,49,0,0,0,20.74-4.19Q799.35,377.51,799.35,367.26Z" transform="translate(-254.64 -320.2)"/><path class="cls-1" d="M1025.36,430.41q0,22.6-16.08,36.35-15.38,12.82-38.45,12.82H849.44V451.84h121.4q11.42,0,19.81-5.13,9.55-6.29,9.55-17t-9.79-16.54q-8.15-4.89-19.57-4.89h-75q-20.74,0-34.72-11.42-14.91-12.35-14.91-32.62,0-20,14.91-32.39,14-11.42,34.72-11.42h120v27.73h-120a21.1,21.1,0,0,0-13.51,4.43,14.37,14.37,0,0,0-5.59,11.88q0,7.69,5.59,11.88a21.88,21.88,0,0,0,13.51,4.19h75q23.07,0,38.45,13.28Q1025.36,407.8,1025.36,430.41Z" transform="translate(-254.64 -320.2)"/><polygon class="cls-2" points="143.36 0.24 219.08 80.16 143.35 159.6 0 159.6 143.36 0.24"/><polygon class="cls-3" points="69.48 71.95 0 0.2 133.96 0.24 69.48 71.95"/></svg>