<svg id="Layer_1" data-name="Layer 1" xmlns="http://www.w3.org/2000/svg" viewBox="0 0 299.51 56.71"><defs><style>.cls-1{fill:#0065a6;}.cls-2{fill:#00aae3;}</style></defs><title>xcrm</title><polygon class="cls-1" points="51 0.01 77.94 28.45 51 56.71 0 56.71 51 0.01"/><polygon class="cls-2" points="24.72 25.53 0 0 47.66 0.01 24.72 25.53"/><path class="cls-1" d="M113.59,177.59a26.13,26.13,0,0,1-10.68-2.17,26.31,26.31,0,0,1-14.14-14.86,30.5,30.5,0,0,1-2-11.17,29.53,29.53,0,0,1,2-11.1,24.63,24.63,0,0,1,5.63-8.55,25.32,25.32,0,0,1,8.51-5.47,28.79,28.79,0,0,1,10.68-1.94h30V132h-30a17.54,17.54,0,0,0-6.88,1.33,16.28,16.28,0,0,0-5.44,3.69,16.94,16.94,0,0,0-3.57,5.63,19.46,19.46,0,0,0-1.29,7.22,19.84,19.84,0,0,0,1.29,7.22,17.18,17.18,0,0,0,3.57,5.74,16.45,16.45,0,0,0,5.44,3.76,17.1,17.1,0,0,0,6.88,1.37h30v9.65Z" transform="translate(-0.25 -121.65)"/><path class="cls-1" d="M202.68,177.59l-14-15.36H168v-8.51h23q5.24,0,7.91-2.85t2.66-8.25q0-5.4-2.78-8T191.05,132h-30.1v45.61h-9.58V122.33h39.68a23.76,23.76,0,0,1,8.44,1.41,17.32,17.32,0,0,1,6.31,4,17.52,17.52,0,0,1,4,6.35,24.11,24.11,0,0,1,1.37,8.36,21,21,0,0,1-3,11.59,16.79,16.79,0,0,1-8.4,6.73l16.65,16.8Z" transform="translate(-0.25 -121.65)"/><path class="cls-1" d="M290.18,177.59l-10.57-38.85-15.66,36a7.62,7.62,0,0,1-2,2.7,4.52,4.52,0,0,1-2.93.95q-3.42,0-4.94-3.65l-15.58-36-10.57,38.85h-9.5l14.22-52q1-4,4.79-4a5.27,5.27,0,0,1,2.85.84,5.2,5.2,0,0,1,2,2.43l17,39.07,17-39.07a4.74,4.74,0,0,1,4.64-3.27q3.49,0,4.64,4l14.14,52Z" transform="translate(-0.25 -121.65)"/></svg>