<svg id="Layer_1" data-name="Layer 1" xmlns="http://www.w3.org/2000/svg" viewBox="0 0 299.51 59.1"><defs><style>.cls-1{fill:#0065a6;}.cls-2{fill:#00aae3;}</style></defs><title>xdocs</title><polygon class="cls-1" points="53.15 0.01 81.22 29.64 53.15 59.1 0 59.1 53.15 0.01"/><polygon class="cls-2" points="25.76 26.6 0 0 49.66 0.01 25.76 26.6"/><path class="cls-1" d="M90.59,179.55v-59.1h34.22a30.82,30.82,0,0,1,11.54,2.11,26.79,26.79,0,0,1,9.1,5.93,27.2,27.2,0,0,1,6,9.15,31.06,31.06,0,0,1,2.15,11.75,32.63,32.63,0,0,1-2.15,12,29,29,0,0,1-6,9.55,27.81,27.81,0,0,1-9.1,6.34,28.44,28.44,0,0,1-11.54,2.32Zm34.22-10.32a18.3,18.3,0,0,0,7.36-1.46,17.76,17.76,0,0,0,9.71-10.16,21.25,21.25,0,0,0,1.38-7.72,20.93,20.93,0,0,0-1.38-7.68,17.47,17.47,0,0,0-9.71-10,18.76,18.76,0,0,0-7.36-1.42h-24v38.45Z" transform="translate(-0.25 -120.45)"/><path class="cls-1" d="M189,179.55a27.94,27.94,0,0,1-11.42-2.32,28.14,28.14,0,0,1-15.12-15.89,32.6,32.6,0,0,1-2.15-12,31.57,31.57,0,0,1,2.15-11.87,26.34,26.34,0,0,1,6-9.15,27.08,27.08,0,0,1,9.1-5.85A30.79,30.79,0,0,1,189,120.45h14.39a31.58,31.58,0,0,1,11.75,2.11,26.17,26.17,0,0,1,15.08,15.08,31.57,31.57,0,0,1,2.11,11.75,32.62,32.62,0,0,1-2.15,12,28.65,28.65,0,0,1-6,9.55,28.26,28.26,0,0,1-9.15,6.34,28.64,28.64,0,0,1-11.62,2.32Zm14.39-10.32a18.79,18.79,0,0,0,7.48-1.46,17.66,17.66,0,0,0,9.75-10.16,21.24,21.24,0,0,0,1.38-7.72,20.92,20.92,0,0,0-1.38-7.68,17.38,17.38,0,0,0-9.75-10,19.28,19.28,0,0,0-7.48-1.42H189a18.75,18.75,0,0,0-7.36,1.42,17.4,17.4,0,0,0-5.81,3.94,18.13,18.13,0,0,0-3.82,6,20.83,20.83,0,0,0-1.38,7.72A21.24,21.24,0,0,0,172,157.6a18.38,18.38,0,0,0,3.82,6.14,17.59,17.59,0,0,0,5.81,4,18.29,18.29,0,0,0,7.36,1.46Z" transform="translate(-0.25 -120.45)"/><path class="cls-1" d="M267.73,179.55a27.94,27.94,0,0,1-11.42-2.32,28.14,28.14,0,0,1-15.12-15.89,32.6,32.6,0,0,1-2.15-12,31.57,31.57,0,0,1,2.15-11.87,26.34,26.34,0,0,1,6-9.15,27.08,27.08,0,0,1,9.1-5.85,30.79,30.79,0,0,1,11.42-2.07h32v10.32h-32a18.75,18.75,0,0,0-7.36,1.42,17.4,17.4,0,0,0-5.81,3.94,18.13,18.13,0,0,0-3.82,6,20.83,20.83,0,0,0-1.38,7.72,21.24,21.24,0,0,0,1.38,7.72,18.38,18.38,0,0,0,3.82,6.14,17.59,17.59,0,0,0,5.81,4,18.29,18.29,0,0,0,7.36,1.46h32v10.32Z" transform="translate(-0.25 -120.45)"/></svg>