<svg id="Layer_1" data-name="Layer 1" xmlns="http://www.w3.org/2000/svg" width="105px"  viewBox="0 0 400 72"><defs>
    <style>.cls-1{fill:#2173b9;}.cls-2{fill:#be1e2d;}</style></defs><title>IdeaArtboard 1</title>
    <path class="cls-1" d="M60,70.46,46.85,68.77a52.52,52.52,0,0,1-16.78,2.48C16.78,71.25,3.6,67.08,1.46,59A51.8,51.8,0,0,1,0,46,54,54,0,0,1,1.46,33c2-8.22,15.2-12.39,28.49-12.39s26.58,4.17,28.72,12.61A48.69,48.69,0,0,1,60,45ZM46.85,45.8a58.28,58.28,0,0,0-.79-10.25C44.82,28.79,37.5,25.41,30,25.41c-7.32,0-14.87,3.38-16,10A62.28,62.28,0,0,0,13.18,46,62.29,62.29,0,0,0,14,56.61c1.13,6.53,8.67,9.91,16.1,9.91,6.19,0,12.39-1.13,16.78-3.6Z"/><path class="cls-1" d="M84.68,11.34c-1,4.62-14.08,4.5-15.2.23a18.21,18.21,0,0,1,0-7C70.61.19,83.56.19,84.68,4.69A13.28,13.28,0,0,1,84.68,11.34ZM70.49,70.46V21.92l13.18,1.8V70.46Z"/><path class="cls-1" d="M107.54,70.46H94.37V21.92l12.16,1.58a50.86,50.86,0,0,1,17.57-2.93c1.69,0,3.38.11,5.07.23v4.73c-1.58-.11-3.15-.23-4.73-.23-7.43,0-15,3.38-16.1,10.14a71.53,71.53,0,0,0-.79,10.25V70.46Z"/><path class="cls-2" d="M138.51.3,151.69,2v21.4a53.72,53.72,0,0,1,16.89-2.48c13.18,0,26.46,4.17,28.49,12.28a52.46,52.46,0,0,1,1.46,13,53.39,53.39,0,0,1-1.46,13.06c-2.14,8.33-15.32,12.5-28.49,12.5S142.12,67.42,140,59a45.39,45.39,0,0,1-1.46-12.73Zm13.18,45.95a59.6,59.6,0,0,0,.79,10.36c1.24,6.87,8.56,10.25,16.1,10.25s14.75-3.38,16-10.14a62.28,62.28,0,0,0,.79-10.59,61.82,61.82,0,0,0-.79-10.47c-1.13-6.53-8.56-10-16-10-6.31,0-12.5,1.24-16.89,3.6Z"/><path class="cls-2" d="M266.22,58.52C262,75.75,213.17,75.19,209,59a59.63,59.63,0,0,1,0-26c4.17-16.56,53-16.56,57.21.23A58.29,58.29,0,0,1,266.22,58.52ZM221.51,35.44a74.14,74.14,0,0,0,0,21.17c2.37,13.06,29.84,13.51,32.21-.45a66.59,66.59,0,0,0-.11-20.61C251.24,21.92,223.87,22,221.51,35.44Z"/><path class="cls-2" d="M335.92,58.52c-4.17,17.23-53,16.67-57.21.45a59.63,59.63,0,0,1,0-26c4.17-16.56,53-16.56,57.21.23A58.29,58.29,0,0,1,335.92,58.52ZM291.21,35.44a74.14,74.14,0,0,0,0,21.17c2.37,13.06,29.84,13.51,32.21-.45a66.59,66.59,0,0,0-.11-20.61C320.95,21.92,293.58,22,291.21,35.44Z"/><path class="cls-2" d="M361.26,2V50.42l20,20H400l-26-26,21.4-21.51h-6.64L361.26,50.42v20H348.08V.3Z"/></svg>
