<svg id="Layer_1" data-name="Layer 1" xmlns="http://www.w3.org/2000/svg" viewBox="0 0 32 32"><defs><style>.cls-1{fill:#aaa;}</style></defs><title>Ideaab_engines</title><path class="cls-1" d="M23.15,8.49A10.44,10.44,0,0,0,21.2,7a4,4,0,0,1-.48,2.66l-2.1,3.63,0,0,3.63-2.1a2.14,2.14,0,0,0,.85-2.78Z"/><path class="cls-1" d="M25,10.83a4,4,0,0,1-1.75,2.07L19.61,15l0,.07h4.19a2.13,2.13,0,0,0,2.13-2A10.32,10.32,0,0,0,25,10.83Z"/><path class="cls-1" d="M23.82,16.94H19.63l0,.07,3.63,2.1a2.13,2.13,0,0,0,2.84-.67A10.36,10.36,0,0,0,26.37,16,4,4,0,0,1,23.82,16.94Z"/><path class="cls-1" d="M8.75,12.9a2.13,2.13,0,0,0-2.84.67A10.36,10.36,0,0,0,5.63,16a4,4,0,0,1,2.55-.92h4.19l0-.07Z"/><path class="cls-1" d="M18.43,5.91A10.36,10.36,0,0,0,16,5.63a4,4,0,0,1,.92,2.55v4.19l.07,0,2.1-3.63A2.13,2.13,0,0,0,18.43,5.91Z"/><path class="cls-1" d="M12.37,16.94H8.18a2.13,2.13,0,0,0-2.13,2,10.32,10.32,0,0,0,1,2.23A4,4,0,0,1,8.75,19.1L12.39,17Z"/><path class="cls-1" d="M24.3,21.26a4,4,0,0,1-2-.54l-3.63-2.1,0,0,2.1,3.63a2.14,2.14,0,0,0,2.78.85A10.44,10.44,0,0,0,25,21.2,4,4,0,0,1,24.3,21.26Z"/><path class="cls-1" d="M11.28,9.69a2.14,2.14,0,0,0-2.78-.85A10.44,10.44,0,0,0,7,10.8a4,4,0,0,1,2.66.48l3.63,2.1,0,0Z"/><path class="cls-1" d="M16,0A16,16,0,1,0,32,16,16,16,0,0,0,16,0Zm0,28.25A12.25,12.25,0,1,1,28.25,16,12.26,12.26,0,0,1,16,28.25Z"/><path class="cls-1" d="M13.06,6.05a10.32,10.32,0,0,0-2.23,1A4,4,0,0,1,12.9,8.75L15,12.39l.07,0V8.18A2.13,2.13,0,0,0,13.06,6.05Z"/><path class="cls-1" d="M13.37,18.67l0,0-3.63,2.1a2.14,2.14,0,0,0-.85,2.78A10.44,10.44,0,0,0,10.8,25a4,4,0,0,1,.48-2.66Z"/><path class="cls-1" d="M15.06,23.82V19.63l-.07,0-2.1,3.63a2.13,2.13,0,0,0,.67,2.84,10.36,10.36,0,0,0,2.41.29A4,4,0,0,1,15.06,23.82Z"/><path class="cls-1" d="M19.1,23.25,17,19.61l-.07,0v4.19a2.13,2.13,0,0,0,2,2.13,10.32,10.32,0,0,0,2.23-1A4,4,0,0,1,19.1,23.25Z"/><path class="cls-1" d="M16,14.13A1.88,1.88,0,1,0,17.88,16,1.88,1.88,0,0,0,16,14.13Z"/></svg>