<svg id="Layer_1" data-name="Layer 1" xmlns="http://www.w3.org/2000/svg" viewBox="0 0 32 32"><defs><style>.cls-1{fill:#aaa;}</style></defs><title>Ideaab_helicopters</title><path class="cls-1" d="M31,23.31a1,1,0,0,0-1,1,1,1,0,0,1-1,1H27.15V23.27a4.81,4.81,0,0,0,4.18-4.78,2.94,2.94,0,0,0,0-.65A9.83,9.83,0,0,0,21.5,8.69h-.62V6.6h9.4a1,1,0,0,0,0-2.09H9.4a1,1,0,0,0,0,2.09h9.4V8.69H2.09v-1A1,1,0,1,0,0,7.65v6.26a1,1,0,0,0,2.09,0v-.75l9.65,2.41h0a1,1,0,0,1,.79,1,6.73,6.73,0,0,0,4.18,6.22V25.4H13.57a1,1,0,1,0,0,2.09h15.3A3.14,3.14,0,0,0,32,24.35,1,1,0,0,0,31,23.31ZM20.88,10.78h.62A7.75,7.75,0,0,1,29.09,17H21.93a1,1,0,0,1-1-1V10.78ZM25.06,25.4H18.79v-2.1l.46,0h5.81Z"/></svg>