<svg id="Layer_1" data-name="Layer 1" xmlns="http://www.w3.org/2000/svg" viewBox="0 0 32 32"><defs><style>.cls-1{fill:#aaa;}</style></defs><title>Ideaab_propeller_engine</title><path class="cls-1" d="M.59.07A1,1,0,0,0,0,1,6.94,6.94,0,0,0,.78,3.17,23.91,23.91,0,0,0,8,11.27a26.15,26.15,0,0,0,2.8,1.66l.71.36.19-.25A11.44,11.44,0,0,1,13,11.71l.25-.2L13,10.9A23.73,23.73,0,0,0,7.67,4,20.85,20.85,0,0,0,3,.69C1.78.07,1-.12.59.07Z"/><path class="cls-1" d="M30.64,0l-.5.16a16,16,0,0,0-3.56,2A23.93,23.93,0,0,0,19,11l-.24.49.28.22A11.48,11.48,0,0,1,20.3,13l.19.25.71-.36a23.72,23.72,0,0,0,9.05-8.1c1-1.55,1.79-3.26,1.73-3.91A.94.94,0,0,0,31.06,0,1.66,1.66,0,0,0,30.64,0Z"/><path class="cls-1" d="M15.15,11.44a6,6,0,0,0-1.51.58A6.71,6.71,0,0,0,12,13.64a7.09,7.09,0,0,0-.4.91,3.08,3.08,0,0,0-.2,1.46,3.08,3.08,0,0,0,.2,1.46,4.32,4.32,0,0,0,1,1.71,4.52,4.52,0,0,0,1.6,1.12A4.77,4.77,0,0,0,18.37,20,7,7,0,0,0,20,18.37a4.65,4.65,0,0,0-2.31-6.68A5.37,5.37,0,0,0,15.15,11.44Z"/><path class="cls-1" d="M10.6,19.18a23.69,23.69,0,0,0-8.44,7.39,16.7,16.7,0,0,0-2,3.56,1.82,1.82,0,0,0,0,1.41c.37.5.79.57,1.64.28a14.81,14.81,0,0,0,3-1.57,23.69,23.69,0,0,0,8.1-9.05l.36-.71-.19-.16-.49-.41a7.88,7.88,0,0,1-.68-.72,2.23,2.23,0,0,0-.44-.46A9.53,9.53,0,0,0,10.6,19.18Z"/><path class="cls-1" d="M20.08,19.22a6.84,6.84,0,0,1-.85.85,2.36,2.36,0,0,0-.47.46,22.39,22.39,0,0,0,1.19,2.24,23.85,23.85,0,0,0,8.89,8.45c1.45.74,2.29.93,2.73.61.65-.49.57-1.24-.33-3a23.74,23.74,0,0,0-8.51-8.92,20.22,20.22,0,0,0-2.2-1.16A2.73,2.73,0,0,0,20.08,19.22Z"/></svg>