<svg id="Layer_1" data-name="Layer 1" xmlns="http://www.w3.org/2000/svg" viewBox="0 0 32 32"><defs><style>.cls-1{fill:#aaa;}</style></defs><title>Ideaab_people</title><path class="cls-1" d="M8.78,5.44a4.1,4.1,0,1,1,4.1,4.1A4.1,4.1,0,0,1,8.78,5.44Zm6.07,6.9a4.44,4.44,0,0,1,.84-2.4,5.23,5.23,0,0,0-1.07-.11H11.14a5.26,5.26,0,0,0-1.07.11,4.45,4.45,0,0,1,.85,2.59,4.48,4.48,0,0,1,3.94-.18Zm.69.37a4.69,4.69,0,0,1,2.18,3.48,3.78,3.78,0,1,0-2.18-3.48Zm-2.48,7.74a3.78,3.78,0,1,0-3.78-3.78A3.78,3.78,0,0,0,13.07,20.44Zm1.6.26H11.47a4.85,4.85,0,0,0-4.84,4.84v4l.27.08a22,22,0,0,0,6.58,1.06,13.5,13.5,0,0,0,5.75-1.08l.25-.13h0V25.54A4.84,4.84,0,0,0,14.68,20.7Zm6.25-3.9H17.75A4.66,4.66,0,0,1,16.31,20a5.75,5.75,0,0,1,4.11,5.5v1.21a13,13,0,0,0,5.07-1.07l.25-.13h0V21.63A4.84,4.84,0,0,0,20.93,16.8Zm.85-7.9A4.68,4.68,0,0,1,24,12.38,3.78,3.78,0,1,0,21.78,8.9ZM27.16,13H24a4.66,4.66,0,0,1-1.44,3.24,5.75,5.75,0,0,1,4.11,5.5v1.21a13,13,0,0,0,5.07-1.07l.25-.13h0V17.83A4.84,4.84,0,0,0,27.16,13ZM6.44,16.54a3.75,3.75,0,0,0,2-.58,4.68,4.68,0,0,1,1.76-3c0-.07,0-.14,0-.21a3.78,3.78,0,1,0-3.78,3.78ZM9.84,20A4.66,4.66,0,0,1,8.4,16.81L8,16.8H4.84A4.84,4.84,0,0,0,0,21.63v4l.27.08a22.59,22.59,0,0,0,5.45,1V25.54A5.75,5.75,0,0,1,9.84,20Z"/></svg>