<svg id="Layer_1" data-name="Layer 1" xmlns="http://www.w3.org/2000/svg" viewBox="0 0 32 32"><defs><style>.cls-1{fill:#aaa;}</style></defs><title>Ideaab_wanted</title><g id="Layer_5" data-name="Layer 5"><path class="cls-1" d="M23.94,9.84c-1-.38-1.23-.62-1.23-1s.25-.73,1-.73a2.69,2.69,0,0,1,1.12.25.35.35,0,0,0,.17,0,.33.33,0,0,0,.31-.21l.17-.44a.27.27,0,0,0-.15-.35,6.73,6.73,0,0,0-1.16-.3A.06.06,0,0,1,24.09,7V6.35A.36.36,0,0,0,23.72,6h-.31a.36.36,0,0,0-.36.35V7c0,.05-.06.07-.08.08a1.87,1.87,0,0,0-1.56,1.82c0,1.11.92,1.61,1.9,2,.79.31,1.11.62,1.11,1.09s-.46.85-1.11.85A3.91,3.91,0,0,1,22,12.49a.35.35,0,0,0-.15,0,.34.34,0,0,0-.32.22l-.17.45a.29.29,0,0,0,.15.36,5.88,5.88,0,0,0,1.4.39s.07,0,.07.07v.67a.36.36,0,0,0,.36.35h.32a.36.36,0,0,0,.36-.35v-.71a.07.07,0,0,1,.06-.07,2,2,0,0,0,1.65-1.92C25.73,11,25.2,10.34,23.94,9.84Z"/><path class="cls-1" d="M23.54,2A8.46,8.46,0,1,0,32,10.49,8.46,8.46,0,0,0,23.54,2Zm0,15a6.5,6.5,0,1,1,6.5-6.5A6.5,6.5,0,0,1,23.54,17Z"/><path class="cls-1" d="M30.28,23.05a21.53,21.53,0,0,1-6.74,2.3c-2.2.34-6.33-.49-6.33-1.47,0-.37,3.62.92,5.81.33,1.68-.45,1.44-2,.53-2.23S17.32,19.83,15,19.76a39.32,39.32,0,0,0-5,.58c-.44.07-.71.06-.74.48-.13,1.95-.38,5.94-.52,8,0,0,.06.64.55.22a2.54,2.54,0,0,1,2-.8c1.09.25,10.5,2,11.8,1.67,1.86-.43,7.12-3.55,8.12-4.52C32.8,23.92,31.59,22.33,30.28,23.05Z"/><path class="cls-1" d="M6.71,20.27,1.78,20a.89.89,0,0,0-.86.64L0,28.8a.54.54,0,0,0,.52.7H6a.73.73,0,0,0,.75-.66L7.35,21A.67.67,0,0,0,6.71,20.27Zm-2.9,8.15a1.36,1.36,0,1,1,1.36-1.36A1.36,1.36,0,0,1,3.81,28.42Z"/></g></svg>