<svg xmlns="http://www.w3.org/2000/svg" xmlns:xlink="http://www.w3.org/1999/xlink" viewBox="0 0 234 228"><defs><style>.cls-1,.cls-24{fill:#fff;}.cls-2{fill:#e4e4e4;}.cls-3{mask:url(#mask);filter:url(#luminosity-noclip-12);}.cls-10,.cls-12,.cls-14,.cls-16,.cls-4,.cls-6,.cls-8{mix-blend-mode:multiply;}.cls-4{fill:url(#linear-gradient);}.cls-5{mask:url(#mask-2);filter:url(#luminosity-noclip-13);}.cls-6{fill:url(#linear-gradient-2);}.cls-7{mask:url(#mask-3);filter:url(#luminosity-noclip-14);}.cls-8{fill:url(#linear-gradient-3);}.cls-9{mask:url(#mask-4);filter:url(#luminosity-noclip-8);}.cls-10{fill:url(#linear-gradient-4);}.cls-11{mask:url(#mask-5);filter:url(#luminosity-noclip-9);}.cls-12{fill:url(#linear-gradient-5);}.cls-13{mask:url(#mask-6);filter:url(#luminosity-noclip-10);}.cls-14{fill:url(#linear-gradient-6);}.cls-15{mask:url(#mask-7);filter:url(#luminosity-noclip-11);}.cls-16{fill:url(#linear-gradient-7);}.cls-17{isolation:isolate;}.cls-18,.cls-45{fill:#f1f1f2;}.cls-19{fill:#e8f5f8;}.cls-20{fill:#41ade2;}.cls-21{mask:url(#mask-8);}.cls-22,.cls-50{fill:#d0d2d3;}.cls-22,.cls-24{opacity:0.5;mix-blend-mode:screen;}.cls-23{mask:url(#mask-9);}.cls-25{mask:url(#mask-10);}.cls-26{fill:#e0e1e3;}.cls-27{mask:url(#mask-11);}.cls-28{fill:url(#linear-gradient-8);}.cls-29{mask:url(#mask-12);}.cls-30{fill:url(#linear-gradient-9);}.cls-31{mask:url(#mask-13);}.cls-32,.cls-33,.cls-41{opacity:0.3;}.cls-32{fill:url(#linear-gradient-10);}.cls-34{mask:url(#mask-14);}.cls-35{fill:url(#linear-gradient-11);}.cls-36{mask:url(#mask-15);}.cls-37{fill:url(#linear-gradient-12);}.cls-38{mask:url(#mask-16);}.cls-39{fill:url(#linear-gradient-13);}.cls-40{mask:url(#mask-17);}.cls-41{fill:url(#linear-gradient-14);}.cls-42{fill:#e6e7e8;}.cls-43{fill:#b3c1c6;}.cls-44{fill:#8ba3aa;}.cls-45,.cls-46,.cls-47{fill-rule:evenodd;}.cls-46,.cls-49{fill:#929497;}.cls-47{fill:#c3e7f0;}.cls-48{fill:#58595b;}.cls-51{fill:#a6a8ab;}.cls-52,.cls-53{fill:none;stroke-linecap:square;stroke-linejoin:bevel;stroke-width:1.2px;}.cls-52,.cls-53,.cls-54{stroke:#f1f1f2;}.cls-53{stroke-dasharray:1.93 2.9;}.cls-54{fill:#11232e;stroke-miterlimit:10;}.cls-55{mask:url(#mask-18);}.cls-56{fill:#d5d5d5;}.cls-57{fill:#39b5d4;}.cls-58{fill:#939393;}.cls-59{fill:#bbbdbf;}.cls-60{mask:url(#mask-19);}.cls-61{fill:#9e9e9e;}.cls-62{filter:url(#luminosity-noclip-7);}.cls-63{filter:url(#luminosity-noclip-6);}.cls-64{filter:url(#luminosity-noclip-5);}.cls-65{filter:url(#luminosity-noclip-4);}.cls-66{filter:url(#luminosity-noclip-3);}.cls-67{filter:url(#luminosity-noclip-2);}.cls-68{filter:url(#luminosity-noclip);}</style><filter id="luminosity-noclip" x="79.09" y="-8306" width="15.04" height="32766" filterUnits="userSpaceOnUse" color-interpolation-filters="sRGB"><feFlood flood-color="#fff" result="bg"/><feBlend in="SourceGraphic" in2="bg"/></filter><mask id="mask" x="79.09" y="-8306" width="15.04" height="32766" maskUnits="userSpaceOnUse"><g class="cls-68"/></mask><linearGradient id="linear-gradient" x1="74.23" y1="62.78" x2="95.37" y2="38.78" gradientUnits="userSpaceOnUse"><stop offset="0" stop-color="#fff"/><stop offset="1"/></linearGradient><filter id="luminosity-noclip-2" x="66.19" y="-8306" width="18.28" height="32766" filterUnits="userSpaceOnUse" color-interpolation-filters="sRGB"><feFlood flood-color="#fff" result="bg"/><feBlend in="SourceGraphic" in2="bg"/></filter><mask id="mask-2" x="66.19" y="-8306" width="18.28" height="32766" maskUnits="userSpaceOnUse"><g class="cls-67"/></mask><linearGradient id="linear-gradient-2" x1="72.38" y1="61.15" x2="93.51" y2="37.15" xlink:href="#linear-gradient"/><filter id="luminosity-noclip-3" x="170.78" y="-8306" width="10.91" height="32766" filterUnits="userSpaceOnUse" color-interpolation-filters="sRGB"><feFlood flood-color="#fff" result="bg"/><feBlend in="SourceGraphic" in2="bg"/></filter><mask id="mask-3" x="170.78" y="-8306" width="10.91" height="32766" maskUnits="userSpaceOnUse"><g class="cls-66"/></mask><linearGradient id="linear-gradient-3" x1="-9938.23" y1="2067.5" x2="-9908.99" y2="2067.5" gradientTransform="translate(-1891.26 -9739.22) rotate(-90)" gradientUnits="userSpaceOnUse"><stop offset="0"/><stop offset="1" stop-color="#fff"/></linearGradient><filter id="luminosity-noclip-4" x="146.52" y="-8306" width="23.48" height="32766" filterUnits="userSpaceOnUse" color-interpolation-filters="sRGB"><feFlood flood-color="#fff" result="bg"/><feBlend in="SourceGraphic" in2="bg"/></filter><mask id="mask-4" x="146.52" y="-8306" width="23.48" height="32766" maskUnits="userSpaceOnUse"><g class="cls-65"/></mask><linearGradient id="linear-gradient-4" x1="146.36" y1="122.73" x2="168.36" y2="165.37" xlink:href="#linear-gradient"/><filter id="luminosity-noclip-5" x="153.27" y="-8306" width="9.98" height="32766" filterUnits="userSpaceOnUse" color-interpolation-filters="sRGB"><feFlood flood-color="#fff" result="bg"/><feBlend in="SourceGraphic" in2="bg"/></filter><mask id="mask-5" x="153.27" y="-8306" width="9.98" height="32766" maskUnits="userSpaceOnUse"><g class="cls-64"/></mask><linearGradient id="linear-gradient-5" x1="139.41" y1="126.32" x2="161.41" y2="168.95" xlink:href="#linear-gradient"/><filter id="luminosity-noclip-6" x="53.37" y="-8306" width="7.76" height="32766" filterUnits="userSpaceOnUse" color-interpolation-filters="sRGB"><feFlood flood-color="#fff" result="bg"/><feBlend in="SourceGraphic" in2="bg"/></filter><mask id="mask-6" x="53.37" y="-8306" width="7.76" height="32766" maskUnits="userSpaceOnUse"><g class="cls-63"/></mask><linearGradient id="linear-gradient-6" x1="57.25" y1="50.73" x2="57.25" y2="20.5" gradientTransform="matrix(1, 0, 0, 1, 0, 0)" xlink:href="#linear-gradient-3"/><filter id="luminosity-noclip-7" x="81.26" y="-8306" width="8.76" height="32766" filterUnits="userSpaceOnUse" color-interpolation-filters="sRGB"><feFlood flood-color="#fff" result="bg"/><feBlend in="SourceGraphic" in2="bg"/></filter><mask id="mask-7" x="81.26" y="-8306" width="8.76" height="32766" maskUnits="userSpaceOnUse"><g class="cls-62"/></mask><linearGradient id="linear-gradient-7" x1="78.85" y1="66.85" x2="99.99" y2="42.85" xlink:href="#linear-gradient"/><mask id="mask-8" x="74.94" y="8.09" width="15.29" height="20.11" maskUnits="userSpaceOnUse"><rect class="cls-1" x="74.94" y="8.09" width="8.5" height="20.11"/></mask><mask id="mask-9" x="91.5" y="18.54" width="19.92" height="17.74" maskUnits="userSpaceOnUse"><rect class="cls-2" x="91.5" y="18.54" width="12.24" height="17.74"/></mask><mask id="mask-10" x="68.23" y="0.8" width="31.61" height="36.09" maskUnits="userSpaceOnUse"><rect class="cls-2" x="83.44" y="0.8" width="16.41" height="36.09"/></mask><filter id="luminosity-noclip-8" x="146.52" y="129.97" width="23.48" height="30.71" filterUnits="userSpaceOnUse" color-interpolation-filters="sRGB"><feFlood flood-color="#fff" result="bg"/><feBlend in="SourceGraphic" in2="bg"/></filter><mask id="mask-11" x="146.52" y="129.97" width="23.48" height="30.71" maskUnits="userSpaceOnUse"><g class="cls-9"><path class="cls-10" d="M165.3,153.21a21.3,21.3,0,0,0,4.7-11.5,11.74,11.74,0,1,0-23.48,0,21.35,21.35,0,0,0,4.7,11.5,6.27,6.27,0,0,1,1,2.89h-1.58v1.61h12.69v1.35H150.63v1.61h15.27v-1.61h-1v-1.35h1V156.1h-1.57A6.21,6.21,0,0,1,165.3,153.21ZM152,144l1.59-.29.1.56.64-.29H155l1.46.66,1.46-.66h.66l1.46.66,1.46-.66h.66l.64.29.1-.56,1.59.29-2.18,12.12h-1.64l1.84-10.21-.67-.3-1.46.66h-.66l-1.46-.66-1.46.66h-.66l-1.46-.66-.68.3,1.84,10.21H154.2Z"/></g></mask><linearGradient id="linear-gradient-8" x1="146.36" y1="122.73" x2="168.36" y2="165.37" gradientUnits="userSpaceOnUse"><stop offset="0" stop-color="#fff"/><stop offset="1" stop-color="#fff"/></linearGradient><filter id="luminosity-noclip-9" x="153.27" y="162.03" width="9.98" height="1.61" filterUnits="userSpaceOnUse" color-interpolation-filters="sRGB"><feFlood flood-color="#fff" result="bg"/><feBlend in="SourceGraphic" in2="bg"/></filter><mask id="mask-12" x="153.27" y="162.03" width="9.98" height="1.61" maskUnits="userSpaceOnUse"><g class="cls-11"><rect class="cls-12" x="153.27" y="162.03" width="9.98" height="1.61"/></g></mask><linearGradient id="linear-gradient-9" x1="139.41" y1="126.32" x2="161.41" y2="168.95" xlink:href="#linear-gradient-8"/><filter id="luminosity-noclip-10" x="53.37" y="20.5" width="7.76" height="30.23" filterUnits="userSpaceOnUse" color-interpolation-filters="sRGB"><feFlood flood-color="#fff" result="bg"/><feBlend in="SourceGraphic" in2="bg"/></filter><mask id="mask-13" x="53.37" y="20.5" width="7.76" height="30.23" maskUnits="userSpaceOnUse"><g class="cls-13"><path class="cls-14" d="M59.08,27.44V43.79a3.88,3.88,0,0,1-.2,6.94v-3.3l-1.63-.94-1.63.94v3.3a3.88,3.88,0,0,1-.2-6.94V27.44a3.88,3.88,0,0,1,.2-6.94v3.3l1.63.94,1.63-.94V20.5a3.87,3.87,0,0,1,.2,6.93Z"/></g></mask><linearGradient id="linear-gradient-10" x1="57.25" y1="50.73" x2="57.25" y2="20.5" gradientUnits="userSpaceOnUse"><stop offset="0" stop-color="#64bcea"/><stop offset="1" stop-color="#fff"/></linearGradient><filter id="luminosity-noclip-11" x="81.26" y="57.44" width="8.76" height="7.1" filterUnits="userSpaceOnUse" color-interpolation-filters="sRGB"><feFlood flood-color="#fff" result="bg"/><feBlend in="SourceGraphic" in2="bg"/></filter><mask id="mask-14" x="81.26" y="57.44" width="8.76" height="7.1" maskUnits="userSpaceOnUse"><g class="cls-15"><path class="cls-16" d="M81.26,57.44,90,60.29a12.41,12.41,0,0,1-3.59,4.26Z"/></g></mask><linearGradient id="linear-gradient-11" x1="78.85" y1="66.85" x2="99.99" y2="42.85" xlink:href="#linear-gradient-8"/><filter id="luminosity-noclip-12" x="79.09" y="39.21" width="15.04" height="19.79" filterUnits="userSpaceOnUse" color-interpolation-filters="sRGB"><feFlood flood-color="#fff" result="bg"/><feBlend in="SourceGraphic" in2="bg"/></filter><mask id="mask-15" x="79.09" y="39.21" width="15.04" height="19.79" maskUnits="userSpaceOnUse"><g class="cls-3"><path class="cls-4" d="M79.09,54.33V39.21a14.44,14.44,0,0,1,4.42.75,15.36,15.36,0,0,1,10,19Z"/></g></mask><linearGradient id="linear-gradient-12" x1="74.23" y1="62.78" x2="95.37" y2="38.78" xlink:href="#linear-gradient-8"/><filter id="luminosity-noclip-13" x="66.19" y="42.11" width="18.28" height="25.03" filterUnits="userSpaceOnUse" color-interpolation-filters="sRGB"><feFlood flood-color="#fff" result="bg"/><feBlend in="SourceGraphic" in2="bg"/></filter><mask id="mask-16" x="66.19" y="42.11" width="18.28" height="25.03" maskUnits="userSpaceOnUse"><g class="cls-5"><path class="cls-6" d="M78.76,67.14a12.57,12.57,0,0,1-8.89-21.47,12.11,12.11,0,0,1,6.92-3.56V55.22l.71,1,7,9.59a12.62,12.62,0,0,1-5.71,1.37Z"/></g></mask><linearGradient id="linear-gradient-13" x1="72.38" y1="61.15" x2="93.51" y2="37.15" xlink:href="#linear-gradient-8"/><filter id="luminosity-noclip-14" x="170.78" y="169.77" width="10.91" height="29.24" filterUnits="userSpaceOnUse" color-interpolation-filters="sRGB"><feFlood flood-color="#fff" result="bg"/><feBlend in="SourceGraphic" in2="bg"/></filter><mask id="mask-17" x="170.78" y="169.77" width="10.91" height="29.24" maskUnits="userSpaceOnUse"><g class="cls-7"><polygon class="cls-8" points="173.51 173.33 170.78 176.88 173.65 176.88 173.65 199.01 178.82 199.01 178.82 176.88 181.69 176.88 178.96 173.33 176.24 169.78 173.51 173.33"/></g></mask><linearGradient id="linear-gradient-14" x1="-9938.23" y1="2067.5" x2="-9908.99" y2="2067.5" gradientTransform="translate(-1891.26 -9739.22) rotate(-90)" xlink:href="#linear-gradient-10"/><mask id="mask-18" x="70.03" y="106.37" width="25.74" height="37.15" maskUnits="userSpaceOnUse"><rect class="cls-1" x="82.26" y="106.37" width="13.51" height="37.15"/></mask><mask id="mask-19" x="70.03" y="106.27" width="27.82" height="35.93" maskUnits="userSpaceOnUse"><rect class="cls-1" x="83.6" y="106.27" width="14.25" height="12.57" rx="1.09" ry="1.09"/></mask></defs><title>IdeaArtboard 1</title><g class="cls-17"><g id="Layer_1" data-name="Layer 1"><g id="_Group_" data-name=" Group "><path class="cls-1" d="M40.21,82.7l-1,1.33-5.86-8.36-4.28-3.17S23.39,79,20.2,82.88l3,5a2.77,2.77,0,0,1-.35,2.24l-.42.57-4.28-5.47L16,83.7,9.63,81.23l.42-.57a2.77,2.77,0,0,1,2-1l5.7,1.39c2.74-4.15,7.34-11.51,7.34-11.51l-4.28-3.17-9.7-3.17,1-1.33c.36-.49,1.38-.38,1.38-.38l16,2.1s1-1.45,4.37-5.89,6.69-4.79,6.69-4.79.67,3.21-2.64,7.8-4.37,5.89-4.37,5.89l6.67,14.69S40.55,82.24,40.21,82.7Z"/><polygon class="cls-1" points="37.8 68.36 35.92 70.89 34.75 68.3 35.81 66.88 37.8 68.36"/><path class="cls-1" d="M37.79,67.94l-1.57-1.17a.81.81,0,0,1,1.07-.08l.3.22A.81.81,0,0,1,37.79,67.94Z"/><polygon class="cls-1" points="27.6 61.45 26.55 62.87 23.74 62.5 25.61 59.97 27.6 61.45"/><path class="cls-1" d="M27.64,61,26.07,59.8a.81.81,0,0,1,1.07-.08l.28.21A.81.81,0,0,1,27.64,61Z"/></g><path class="cls-18" d="M92.5,81.47a24.07,24.07,0,1,0,24.07-24.07A24.07,24.07,0,0,0,92.5,81.47Zm4.54,0A19.53,19.53,0,1,1,116.57,101,19.53,19.53,0,0,1,97,81.47Z"/><path class="cls-18" d="M98.12,81.47a18.37,18.37,0,1,0,18.37-18.37A18.39,18.39,0,0,0,98.12,81.47Zm14.62,0a3.83,3.83,0,1,1,3.83,3.83A3.83,3.83,0,0,1,112.74,81.47Zm-2-1.25c-2.61-.86-7-1.35-11.73-1.82a17.6,17.6,0,0,1,.45-1.93c4.63,1.21,9,2.39,11.31,3.64Zm-11-4.53a17.65,17.65,0,0,1,.75-1.84c4.38,1.91,8.47,3.76,10.59,5.37l0,.1C108.57,78.06,104.29,76.88,99.71,75.69Zm1.12-2.57a17.79,17.79,0,0,1,1-1.69c4,2.57,7.77,5,9.61,7l-.05.09C109.21,76.84,105.17,75,100.84,73.12Zm1.52-2.36a17.89,17.89,0,0,1,1.28-1.5c3.58,3.17,6.88,6.19,8.39,8.36l-.07.08C110,75.74,106.33,73.3,102.35,70.76Zm1.87-2.09a17.91,17.91,0,0,1,1.5-1.29c3,3.69,5.83,7.19,7,9.57l-.08.07C111,74.79,107.75,71.8,104.22,68.67Zm2.17-1.77a17.76,17.76,0,0,1,1.68-1c2.42,4.12,4.63,8,5.39,10.54l-.08.05C112.15,74,109.38,70.54,106.39,66.89Zm2.41-1.41a17.64,17.64,0,0,1,1.82-.75c1.74,4.45,3.32,8.63,3.67,11.24l-.09,0C113.38,73.4,111.19,69.55,108.8,65.48Zm2.61-1a17.59,17.59,0,0,1,1.91-.46c1,4.67,1.92,9,1.86,11.67l-.09,0C114.68,73,113.13,68.86,111.41,64.47Zm2.73-.58a17.8,17.8,0,0,1,2-.15c.28,4.76.48,9.22,0,11.8H116C116,72.82,115.15,68.5,114.14,63.89Zm2.78-.15a17.79,17.79,0,0,1,2,.15c-.47,4.75-1,9.18-1.84,11.65h-.09C117.4,72.85,117.2,68.44,116.92,63.74Zm2.77.28a17.6,17.6,0,0,1,1.9.46c-1.2,4.62-2.39,8.91-3.64,11.2l-.09,0C118.73,73.09,119.23,68.71,119.69,64Zm2.69.71a17.65,17.65,0,0,1,1.8.75c-1.91,4.37-3.75,8.42-5.35,10.48l-.08,0C120,73.54,121.19,69.29,122.38,64.74Zm2.54,1.12a17.78,17.78,0,0,1,1.66,1c-2.57,4-5,7.72-6.91,9.5l-.07,0C121.21,74.18,123,70.17,124.92,65.86Zm2.33,1.51a17.89,17.89,0,0,1,1.48,1.26c-3.16,3.56-6.16,6.84-8.31,8.29l-.06-.05C122.28,75,124.71,71.33,127.24,67.37Zm2.06,1.85a17.89,17.89,0,0,1,1.26,1.47c-3.68,3-7.16,5.79-9.5,6.89l-.05-.06C123.21,76,126.18,72.73,129.3,69.22Zm1.75,2.14a17.8,17.8,0,0,1,1,1.65c-4.11,2.41-8,4.6-10.46,5.31l0-.07C124,77.07,127.42,74.34,131.06,71.36Zm1.4,2.38a17.63,17.63,0,0,1,.75,1.79c-4.44,1.74-8.6,3.29-11.16,3.61l0-.07C124.58,78.27,128.4,76.11,132.46,73.74Zm1,2.57a17.59,17.59,0,0,1,.46,1.88c-4.65,1-9,1.91-11.59,1.82l0-.08C125,79.56,129.09,78,133.47,76.31Zm.59,2.7a17.79,17.79,0,0,1,.16,1.93c-4.76.28-9.19.47-11.73,0v-.08h.22C125.4,80.84,129.59,80,134.06,79Zm.17,2.75a17.82,17.82,0,0,1-.14,1.93c-4.74-.47-9.16-1-11.58-1.85v-.08a26.32,26.32,0,0,0,4.37.29C129.07,82,131.6,81.91,134.23,81.76ZM134,84.51a17.61,17.61,0,0,1-.43,1.89c-4.61-1.2-8.89-2.39-11.15-3.64l0-.08C124.94,83.55,129.3,84,134,84.51Zm-.68,2.67a17.63,17.63,0,0,1-.72,1.8c-4.37-1.91-8.41-3.75-10.45-5.34l0-.07C124.52,84.82,128.74,86,133.29,87.18Zm-1.09,2.54a17.78,17.78,0,0,1-1,1.66c-4-2.57-7.72-5-9.49-6.91l0-.07C123.9,86,127.89,87.84,132.2,89.72Zm-1.47,2.34a17.88,17.88,0,0,1-1.24,1.49c-3.56-3.17-6.84-6.17-8.3-8.31l.05-.06C123.11,87.1,126.77,89.52,130.73,92.06Zm-1.82,2.08a17.9,17.9,0,0,1-1.46,1.28c-3-3.69-5.8-7.17-6.9-9.52l.06-.06C122.16,88,125.39,91,128.91,94.14Zm-2.12,1.78a17.79,17.79,0,0,1-1.64,1c-2.41-4.12-4.61-8-5.34-10.49l.07,0C121.07,88.84,123.8,92.28,126.79,95.91Zm-2.37,1.43a17.64,17.64,0,0,1-1.79.78c-1.74-4.45-3.31-8.62-3.64-11.21l.08,0C119.87,89.46,122,93.29,124.42,97.35Zm-2.57,1a17.57,17.57,0,0,1-1.89.49c-1-4.67-1.92-9-1.84-11.65l.09,0C118.59,89.88,120.13,94,121.85,98.39Zm-2.71.63a17.77,17.77,0,0,1-1.95.18c-.28-4.77-.48-9.23,0-11.81h.09C117.25,90.1,118.13,94.42,119.14,99Zm-2.77.2a17.81,17.81,0,0,1-2-.12c.47-4.76,1-9.2,1.84-11.67h.09C115.89,90.1,116.09,94.51,116.37,99.22ZM113.59,99a17.59,17.59,0,0,1-1.92-.43c1.21-4.63,2.39-8.94,3.64-11.25l.09,0C114.55,89.9,114.05,94.29,113.59,99Zm-2.71-.67a17.62,17.62,0,0,1-1.83-.73c1.91-4.38,3.76-8.46,5.36-10.56l.09,0C113.25,89.49,112.08,93.75,110.89,98.31Zm-2.57-1.09a17.75,17.75,0,0,1-1.7-1c2.58-4,5-7.77,7-9.6l.09,0C112,88.87,110.2,92.9,108.32,97.22Zm-2.37-1.48a17.89,17.89,0,0,1-1.52-1.26c3.18-3.58,6.2-6.89,8.37-8.39l.08.06C110.92,88.07,108.49,91.77,105.94,95.74Zm5.66-11c-2.45,1.23-5.92,4-9.56,7A17.79,17.79,0,0,1,101,90.08c4.13-2.42,8-4.64,10.57-5.41Zm-11,4.59a17.64,17.64,0,0,1-.78-1.82c4.46-1.75,8.66-3.33,11.29-3.7l0,.1C108.52,84.77,104.67,87,100.59,89.35Zm-1.05-2.6a17.59,17.59,0,0,1-.48-1.92c4.68-1,9.08-1.94,11.73-1.89l0,.1C108.1,83.46,103.94,85,99.54,86.75ZM98.92,84a17.8,17.8,0,0,1-.17-2c4.78-.28,9.27-.49,11.88,0v.11C107.89,82.1,103.54,83,98.92,84Zm-.18-2.8a17.82,17.82,0,0,1,.14-2c4.76.47,9.23,1,11.74,1.83,0,0,0,.07,0,.11C107.9,80.72,103.47,80.93,98.75,81.21Zm3.78,11.21c3.7-3,7.2-5.84,9.58-7l.07.08c-2.23,1.6-5.22,4.87-8.35,8.4A17.9,17.9,0,0,1,102.53,92.42Z"/><path class="cls-18" d="M113.33,81.47a3.23,3.23,0,1,0,3.23-3.23A3.23,3.23,0,0,0,113.33,81.47Zm.55-.66a.21.21,0,0,1,.41,0A2.17,2.17,0,0,0,116.46,83a1.69,1.69,0,0,0,1.69-1.69A1.31,1.31,0,0,0,116.84,80a1,1,0,0,0-1,1,.77.77,0,0,0,.76.76.57.57,0,0,0,.57-.57.42.42,0,0,0-.42-.42.29.29,0,0,0-.29.29.21.21,0,0,1-.41,0,.7.7,0,0,1,.7-.7.83.83,0,0,1,.83.83,1,1,0,0,1-1,1A1.18,1.18,0,0,1,115.42,81a1.42,1.42,0,0,1,1.42-1.42,1.73,1.73,0,0,1,1.72,1.72,2.11,2.11,0,0,1-2.1,2.1A2.58,2.58,0,0,1,113.88,80.81Z"/><path class="cls-1" d="M196.89,70.13a1.22,1.22,0,1,1-1.25-1.2A1.22,1.22,0,0,1,196.89,70.13Zm-.65,0a.58.58,0,1,0-.57.59A.58.58,0,0,0,196.24,70.14Z"/><path class="cls-1" d="M195.63,70.42h.08a.07.07,0,0,1,.07.06v.07a.05.05,0,0,1-.05.07h-.13a.05.05,0,0,1-.05-.06v-.07A.07.07,0,0,1,195.63,70.42Z"/><path class="cls-1" d="M195.45,70.32l.05.05a.07.07,0,0,1,0,.09l0,.06a.05.05,0,0,1-.08,0l-.1-.09a.05.05,0,0,1,0-.08l.06,0A.07.07,0,0,1,195.45,70.32Z"/><path class="cls-1" d="M195.84,70.37l.05-.05a.07.07,0,0,1,.09,0l.06,0a.05.05,0,0,1,0,.08l-.09.1a.05.05,0,0,1-.08,0l0-.06A.07.07,0,0,1,195.84,70.37Z"/><path class="cls-1" d="M184.8,70.21l-.13.53,0,0-.07.13a.57.57,0,0,1,.08.28.58.58,0,1,1-.92-.46v-.25l.11-.48a1.23,1.23,0,1,0,.93.21Z"/><path class="cls-1" d="M183.78,71.31a.32.32,0,0,1,0-.11v-.1h-.07a.05.05,0,0,0-.06.05v.13a.05.05,0,0,0,.07.05h.08Z"/><path class="cls-1" d="M183.85,71.43l-.05-.07h0l-.06,0a.05.05,0,0,0,0,.08l.1.09a.05.05,0,0,0,.08,0l0-.06v0Z"/><path class="cls-1" d="M184.5,71.08l-.11.21,0,0h.07a.05.05,0,0,0,.06-.05v-.13A.05.05,0,0,0,184.5,71.08Z"/><path class="cls-1" d="M183.75,71v-.15l0,0a.05.05,0,0,0,0,.08Z"/><path class="cls-1" d="M184.18,71.5l-.1,0H184v.1a.05.05,0,0,0,.05.06h.13a.05.05,0,0,0,.05-.07v-.07Z"/><path class="cls-1" d="M184.4,71.36h0a.32.32,0,0,1-.12.13.07.07,0,0,0,0,0l0,.06a.05.05,0,0,0,.08,0l.09-.1a.05.05,0,0,0,0-.08Z"/><path class="cls-1" d="M191.57,68.5h-1l.79,1a.1.1,0,0,0,.08,0h.37a.1.1,0,0,0,.09-.14Z"/><path class="cls-1" d="M209.12,66.88l-.57.07.4.5a.07.07,0,0,0,.06,0h.25a.07.07,0,0,0,.06-.1Z"/><circle class="cls-1" cx="195.66" cy="70.15" r="0.14" transform="matrix(1, -0.02, 0.02, 1, -1.24, 3.57)"/><path class="cls-1" d="M195.7,69.87h-.08a.07.07,0,0,1-.07-.06v-.07a.05.05,0,0,1,.05-.07h.13a.05.05,0,0,1,.05.06v.07A.07.07,0,0,1,195.7,69.87Z"/><path class="cls-1" d="M195.88,70l-.05-.05a.07.07,0,0,1,0-.09l0-.06a.05.05,0,0,1,.08,0l.1.09a.05.05,0,0,1,0,.08L196,70A.07.07,0,0,1,195.88,70Z"/><path class="cls-1" d="M195.94,70.18v-.08A.07.07,0,0,1,196,70h.07a.05.05,0,0,1,.07.05v.13a.05.05,0,0,1-.06.05H196A.07.07,0,0,1,195.94,70.18Z"/><path class="cls-1" d="M195.39,70.12v.08a.07.07,0,0,1-.06.07h-.07a.05.05,0,0,1-.07-.05v-.13a.05.05,0,0,1,.06-.05h.07A.07.07,0,0,1,195.39,70.12Z"/><path class="cls-1" d="M195.49,69.93l-.05.05a.07.07,0,0,1-.09,0l-.06,0a.05.05,0,0,1,0-.08l.09-.1a.05.05,0,0,1,.08,0l0,.06A.07.07,0,0,1,195.49,69.93Z"/><path class="cls-1" d="M195.64,68.71h.13v-.43l-.27,0v.42Z"/><path class="cls-1" d="M181.06,67.34a3.29,3.29,0,0,1-1.49-.83l-.15.56a2.65,2.65,0,0,0,1.47.91l3.29.67,0-.17a.32.32,0,0,1,.31-.25h.08l.31.07a.32.32,0,0,1,.24.39l0,.14.14,0,.24-.71A37.81,37.81,0,0,1,181.06,67.34Z"/><path class="cls-1" d="M184.5,68.55l-.48,2h0v.64a0,0,0,0,0,.08,0l.3-.56h0l.48-2a0,0,0,0,0,0-.05l-.31-.07A0,0,0,0,0,184.5,68.55Z"/><path class="cls-1" d="M218.59,63.27l2.16-.86a1.14,1.14,0,0,1,.4-.08l5.73-.1a.3.3,0,0,1,.24.12l.62.81a.09.09,0,0,1-.07.14l-9.05.16A.1.1,0,0,1,218.59,63.27Z"/><ellipse class="cls-1" cx="176.94" cy="60.02" rx="0.47" ry="3.03" transform="translate(-1.06 3.22) rotate(-1.04)"/><path class="cls-1" d="M177,63.71c.29,0,.48.34.6.81a7.92,7.92,0,0,0,1,.1c0-.08,0-.15,0-.23l-.12-1.57a.93.93,0,0,1,0-.36,7.89,7.89,0,0,0-.92.13c-.1.48-.28.83-.57.84s-.39-.2-.51-.52a4,4,0,0,0-1,.56.16.16,0,0,0,0,.25,4,4,0,0,0,1,.52C176.63,63.93,176.78,63.71,177,63.71Z"/><ellipse class="cls-1" cx="177.07" cy="67.12" rx="0.47" ry="3.03" transform="translate(-1.19 3.23) rotate(-1.04)"/><path class="cls-1" d="M190,59.37a.41.41,0,0,1-.18-.79,13.58,13.58,0,0,1,6-1.24,28.6,28.6,0,0,1,9,1.23v.6s-5.81.34-9,.39C193.74,59.6,191.37,59.47,190,59.37Z"/><path class="cls-1" d="M189.8,66.86l2.08-7.05-.72,0-2.09,7.07c-.36.06-.61.2-.61.36s.42.36.93.35.92-.18.92-.39S190.1,66.91,189.8,66.86Z"/><path class="cls-1" d="M180.46,62a20.33,20.33,0,0,1,.07,2.95l5.49.21a35.4,35.4,0,0,0,0-3.74h0Z"/><path class="cls-1" d="M180.19,62l-.88.09a.65.65,0,0,0-.58.7l.12,1.57a3,3,0,0,0,1.28,2.24A22.63,22.63,0,0,0,180.19,62Z"/><path class="cls-1" d="M186,65.42l-5.49-.21q0,.75-.13,1.57a3,3,0,0,0,.74.3,37.8,37.8,0,0,0,4.66.84Q185.95,66.69,186,65.42Z"/><path class="cls-1" d="M230.83,54.12l.3-.63-3.84-.4a1.41,1.41,0,0,0-1.24.51l-.25.3Z"/><path class="cls-1" d="M223.32,64.76l1.52-.21a2.15,2.15,0,0,0,1.5-1l-3,.06Z"/><rect class="cls-1" x="201.13" y="63.04" width="2.53" height="3.5" rx="0.42" ry="0.42" transform="translate(-1.14 3.69) rotate(-1.04)"/><path class="cls-1" d="M228.91,54.31,223.86,62l3-.06a.57.57,0,0,1,.23,0l3.59-7.61Z"/><path class="cls-1" d="M218.26,63.44a.37.37,0,0,0,.38.3l4.38-.08,0,1.14c-7.06,1-24.83,3.3-31.11,3.42a45,45,0,0,1-5.86-.27,34.24,34.24,0,0,0,.18-6.73,20.1,20.1,0,0,1,3.21-1.7.73.73,0,0,0,.48.2l.95,0-2,6.85c-.42.11-.67.33-.67.6,0,.45.63.64,1.21.63s1.2-.22,1.19-.67c0-.22-.16-.4-.44-.51l2-6.85c.84,0,1.75.07,2.6.05l1.49,0c2.53,0,8.55,1.87,8.55,1.87l3.19-.06.29,0,8.18-.89a10.16,10.16,0,0,0,6.79-3.7l2.32-2.86,3,.13L223.52,62l-2.37,0a1.42,1.42,0,0,0-.5.1l-2.16.86A.37.37,0,0,0,218.26,63.44Zm-31.38-2.29,3,1.18.68-2.29-.6,0a1.05,1.05,0,0,1-.51-.16A20.18,20.18,0,0,0,186.88,61.14Zm9.84-.28a.73.73,0,0,0-.57-.68l-3.78,0-.8,2.44,4.54.09a.61.61,0,0,0,.64-.62Zm1.1,1.76,4-.21a.47.47,0,0,0,.35-.23l.24-.41a.11.11,0,0,0-.07-.16,19.33,19.33,0,0,0-2.35-.72c-.46-.08-1.76-.45-2.16-.49h-.12a.46.46,0,0,0-.45.47l0,1.3A.46.46,0,0,0,197.82,62.63Zm6.09.79a.7.7,0,0,0-.71-.68l-1.7,0a.7.7,0,0,0-.68.71l0,2.67a.7.7,0,0,0,.71.68l1.7,0a.7.7,0,0,0,.68-.71Z"/><path class="cls-1" d="M116.17,153.63a1.42,1.42,0,0,0-1.34-.62,4.24,4.24,0,0,0-.76.08,2.7,2.7,0,0,1,1.16-1.92c.37,1,.87,1.53,1.52,1.53s1.16-.51,1.52-1.53a2.7,2.7,0,0,1,1.16,1.91,4.11,4.11,0,0,0-.68-.07,1.4,1.4,0,0,0-1.32.61c-.33.57-.12,1.28.64,2.14a2.69,2.69,0,0,1-2.54,0C116.29,154.93,116.51,154.21,116.17,153.63Z"/><path class="cls-1" d="M114.79,144.35c0-6,.88-13.71,2-13.71s2,7.7,2,13.71-.88,8.05-2,8.05S114.79,150.36,114.79,144.35Z"/><path class="cls-1" d="M125.89,156.23c5.4,3.12,11.87,7.87,11.33,8.81s-7.9-2.29-13.3-5.41-6.79-4.94-6.25-5.88S120.49,153.11,125.89,156.23Z"/><path class="cls-1" d="M114.36,144.35c0,.21,0,.41,0,.62a8.73,8.73,0,0,0-6.15,10.49l-.46.26-1.08.64a10.49,10.49,0,0,1,7.71-13.17C114.36,143.89,114.36,144.33,114.36,144.35Z"/><path class="cls-1" d="M110.15,159.87l.4-.24a8.77,8.77,0,0,0,12.45,0l.72.42.82.46a10.49,10.49,0,0,1-15.51,0Z"/><path class="cls-1" d="M126.11,155.86l-.81-.46A8.74,8.74,0,0,0,119.14,145c0-.2,0-.4,0-.62,0,0,0-.46,0-1.17a10.49,10.49,0,0,1,7.72,13.12Z"/><path class="cls-1" d="M109.93,159.5c-5.2,3-12.31,6.09-12.86,5.15s5.69-5.55,10.89-8.56,7.41-3.26,8-2.32S115.14,156.49,109.93,159.5Z"/><path class="cls-19" d="M65.84,96A3.26,3.26,0,0,1,67.13,97a12.91,12.91,0,0,0,6.11-4.33,15.89,15.89,0,0,0-3.81-2.15,16.29,16.29,0,0,1-3,4.74Q66.16,95.64,65.84,96Z"/><path class="cls-19" d="M63.3,83.87H70a17,17,0,0,0-.8-5.16,18.26,18.26,0,0,1-5.88,1.06Z"/><path class="cls-19" d="M68.94,78a15.77,15.77,0,0,0-2.66-4.63,5.86,5.86,0,0,1-3,.85V79A17.48,17.48,0,0,0,68.94,78Z"/><path class="cls-19" d="M70.71,83.87h5.2a12.82,12.82,0,0,0-2.83-7.16,16.6,16.6,0,0,1-3.21,1.74A17.79,17.79,0,0,1,70.71,83.87Z"/><path class="cls-19" d="M69.69,89.86a16.53,16.53,0,0,1,4,2.25,12.82,12.82,0,0,0,2.27-7.31q0-.15,0-.29H70.7A17.65,17.65,0,0,1,69.69,89.86Z"/><path class="cls-19" d="M67.13,72.58a2.47,2.47,0,0,1-.28.35,16.39,16.39,0,0,1,2.78,4.83,16,16,0,0,0,3-1.61A12.89,12.89,0,0,0,67.13,72.58Z"/><path class="cls-19" d="M55.27,83.87a17.66,17.66,0,0,1,1-5.35A16.67,16.67,0,0,1,53,76.77a12.82,12.82,0,0,0-2.77,7.1Z"/><path class="cls-19" d="M63.3,88.61a18.29,18.29,0,0,1,5.7,1,16.88,16.88,0,0,0,1-5.1H63.3Z"/><path class="cls-19" d="M57,90.36a15.6,15.6,0,0,0,3.45,5.5,6.29,6.29,0,0,1,2.19-.5v-6A17.48,17.48,0,0,0,57,90.36Z"/><path class="cls-19" d="M59.47,73.12a2.63,2.63,0,0,1-.48-.54,12.9,12.9,0,0,0-5.53,3.64,16.07,16.07,0,0,0,3.08,1.62A16.29,16.29,0,0,1,59.47,73.12Z"/><path class="cls-19" d="M62.66,74.24a6,6,0,0,1-2.59-.7,15.62,15.62,0,0,0-2.85,4.55,17.5,17.5,0,0,0,5.44,1Z"/><path class="cls-19" d="M68.74,90.29a17.5,17.5,0,0,0-5.44-1v6a6.67,6.67,0,0,1,1.79.3A15.45,15.45,0,0,0,68.74,90.29Z"/><path class="cls-19" d="M62.66,79.77a18.29,18.29,0,0,1-5.7-1,16.88,16.88,0,0,0-1,5.1h6.67Z"/><path class="cls-19" d="M56.1,89.93a17.79,17.79,0,0,1-.84-5.42H50.18q0,.15,0,.29A12.82,12.82,0,0,0,52.4,92,16.51,16.51,0,0,1,56.1,89.93Z"/><path class="cls-19" d="M59,97a2.91,2.91,0,0,1,.82-.8l-.32-.34a16.34,16.34,0,0,1-3.15-5.26,15.87,15.87,0,0,0-3.51,2A12.91,12.91,0,0,0,59,97Z"/><path class="cls-19" d="M62.66,84.51H56a17,17,0,0,0,.8,5.16,18.26,18.26,0,0,1,5.88-1.06Z"/><polygon class="cls-19" points="120.87 120.4 117.66 117.19 120.87 113.97 119.99 113.09 116.78 116.31 113.56 113.09 112.68 113.97 115.9 117.19 112.68 120.4 113.56 121.28 116.78 118.06 119.99 121.28 120.87 120.4"/><polygon class="cls-19" points="100.15 181.65 96.93 178.43 100.15 175.21 99.27 174.34 96.06 177.55 92.84 174.34 91.96 175.21 95.18 178.43 91.96 181.65 92.84 182.52 96.06 179.31 99.27 182.52 100.15 181.65"/><polygon class="cls-19" points="46.98 42.65 43.77 39.43 46.98 36.21 46.1 35.34 42.89 38.55 39.67 35.34 38.79 36.21 42.01 39.43 38.79 42.65 39.67 43.52 42.89 40.31 46.1 43.52 46.98 42.65"/><polygon class="cls-19" points="222.22 38.1 219 34.89 222.22 31.67 221.34 30.79 218.13 34.01 214.91 30.79 214.03 31.67 217.25 34.89 214.03 38.1 214.91 38.98 218.13 35.77 221.34 38.98 222.22 38.1"/><polygon class="cls-19" points="36.6 103.06 33.38 99.85 36.6 96.63 35.72 95.75 32.5 98.97 29.29 95.75 28.41 96.63 31.63 99.85 28.41 103.06 29.29 103.94 32.5 100.72 35.72 103.94 36.6 103.06"/><polygon class="cls-19" points="215.24 198.92 212.03 195.7 215.24 192.49 214.37 191.61 211.15 194.82 207.93 191.61 207.06 192.49 210.27 195.7 207.06 198.92 207.93 199.79 211.15 196.58 214.37 199.79 215.24 198.92"/><polygon class="cls-19" points="57.72 132.72 54.5 129.51 57.72 126.29 56.84 125.41 53.63 128.63 50.41 125.41 49.53 126.29 52.75 129.51 49.53 132.72 50.41 133.6 53.63 130.38 56.84 133.6 57.72 132.72"/><path class="cls-19" d="M154.13,13.76a6.09,6.09,0,0,0-9.94-4.65,9.05,9.05,0,1,0-17.5,4.65h-.25a4.09,4.09,0,0,0-4.08,4.08V18A4.09,4.09,0,0,0,126.45,22h27.49A4.09,4.09,0,0,0,158,18v-.13A4.09,4.09,0,0,0,154.13,13.76Z"/><path class="cls-19" d="M214.82,117.35l-.2.17a1.63,1.63,0,0,1-.44.23,1.68,1.68,0,0,1-1,0,2.19,2.19,0,0,1-.89-.46A2.64,2.64,0,0,1,212,117l-.14-.18-.12-.19h-.11l0-.16v-.35c0-.13,0-.25,0-.35v-.32c0-.09,0-.22,0-.35v-.35l0-.16h.11l.12-.19.14-.18a2.64,2.64,0,0,1,.34-.34,2.19,2.19,0,0,1,.89-.46,1.68,1.68,0,0,1,1,0,1.63,1.63,0,0,1,.44.23l.2.17.09.1.08.1v0s0-.07,0-.13l-.08-.46-.07-.3,0-.17,0-.09,0-.09-.1-.36,0-.09,0-.09-.06-.18c-.08-.24-.18-.48-.27-.71l-.14-.32-.13-.28-.21-.41-.09-.15a1.75,1.75,0,0,1-.07.52,1.7,1.7,0,0,1-.2.45,1.68,1.68,0,0,1-.74.62,2.18,2.18,0,0,1-1,.18,2.47,2.47,0,0,1-.47-.06l-.22-.06-.21-.08-.1.06-.07-.13-.05-.09,0,0-.06-.09-.06-.1-.08-.11-.14-.2-.07-.09-.09-.12-.06-.08,0,0,.09-.07a2.21,2.21,0,0,1,0-.45,2.42,2.42,0,0,1,.1-.46,2.21,2.21,0,0,1,.51-.86,1.77,1.77,0,0,1,.39-.3l.22-.1.23-.07a1.74,1.74,0,0,1,.49,0l.25,0,.26.07-.12-.13-.13-.15-.18-.19a10.89,10.89,0,0,0-1-1l-.3-.24-.3-.22-.14-.1-.14-.09-.26-.17-.12-.07-.11-.06-.18-.1-.11-.06,0,0a2,2,0,0,1,.22.48,1.63,1.63,0,0,1,.05.24,1.71,1.71,0,0,1,0,.25,1.67,1.67,0,0,1-.29.92,2.2,2.2,0,0,1-.73.67l-.21.11-.22.09-.22.07-.11,0-.11,0-.05.1-.13-.07-.09,0,0,0-.33-.15-.33-.13-.28-.09,0-.11-.06-.09-.06-.09-.11-.2c0-.07-.06-.14-.09-.22s-.05-.15-.07-.23a2.2,2.2,0,0,1,0-1,1.67,1.67,0,0,1,.45-.85,1.79,1.79,0,0,1,.89-.47h0l-.13,0-.19-.06-.25-.07-.3-.07-.17,0-.17,0-.37-.06-.38,0-.19,0-.19,0-.37,0h-1.29l.23.13.2.16a1.73,1.73,0,0,1,.32.38,1.69,1.69,0,0,1,.24.93,2.19,2.19,0,0,1-.26,1,2.46,2.46,0,0,1-.26.4l-.15.17-.16.16v.11h-.4l-.24,0-.24,0-.08,0h0l-.29.07,0-.11a2.22,2.22,0,0,1-.4-.21l-.1-.07-.09-.07-.18-.16a2.22,2.22,0,0,1-.56-.83,1.66,1.66,0,0,1-.07-1,1.7,1.7,0,0,1,.18-.46,2,2,0,0,1,.32-.41l-.17,0-.45.14-.29.1-.32.12c-.23.08-.46.19-.69.3l-.34.17-.17.09-.16.09-.3.17-.26.17-.22.14-.17.12-.14.1a2,2,0,0,1,.52,0,1.75,1.75,0,0,1,.47.15,1.61,1.61,0,0,1,.4.27,1.77,1.77,0,0,1,.31.38,2,2,0,0,1,.2.47,2.38,2.38,0,0,1,.09.49,2.56,2.56,0,0,1,0,.47,2.17,2.17,0,0,1-.09.44l.07.09-.23.18,0,0-.06.05-.19.16-.18.17-.08.08,0,0-.07.07-.1.11-.08-.08-.22,0h-.46l-.24,0a2.19,2.19,0,0,1-.91-.4,1.68,1.68,0,0,1-.57-.77,1.63,1.63,0,0,1-.09-.49,1.83,1.83,0,0,1,0-.52l0,0-.09.1-.3.35a11.23,11.23,0,0,0-.83,1.14l-.1.16-.1.16-.18.32-.16.31-.07.14-.06.14-.11.24,0,.1,0,.09-.07.16.22-.15.23-.12a1.73,1.73,0,0,1,.48-.13,1.68,1.68,0,0,1,.95.18,2,2,0,0,1,.42.29l.18.17.16.19a2.46,2.46,0,0,1,.25.4l0,.1,0,.11a2.08,2.08,0,0,1,.07.21l.1,0,0,0,0,.09,0,.14,0,.11,0,.11,0,.13-.07.24,0,.11,0,.14,0,.1v0l-.11,0a2.19,2.19,0,0,1-.36.27,2.44,2.44,0,0,1-.9.34,2,2,0,0,1-.51,0,1.66,1.66,0,0,1-.9-.35,1.75,1.75,0,0,1-.34-.36,1.91,1.91,0,0,1-.23-.47l0,.17,0,.2,0,.26c0,.1,0,.2,0,.31l0,.34v1.5l0,.34c0,.11,0,.21,0,.31l0,.26,0,.2,0,.17a1.91,1.91,0,0,1,.23-.47,1.75,1.75,0,0,1,.34-.36,1.66,1.66,0,0,1,.9-.35,2,2,0,0,1,.51,0,2.43,2.43,0,0,1,.9.34,2.19,2.19,0,0,1,.36.27l.11,0v0l0,.1,0,.14,0,.11.07.24,0,.13,0,.11,0,.11,0,.14,0,.09,0,0-.1,0a2.09,2.09,0,0,1-.07.21l0,.11,0,.1a2.45,2.45,0,0,1-.25.4l-.16.19-.18.17a2,2,0,0,1-.42.29,1.68,1.68,0,0,1-.95.18,1.73,1.73,0,0,1-.48-.13l-.23-.12-.22-.15.07.16,0,.09,0,.1.11.24.06.14.07.14.16.31.18.32.1.16.1.16a11.23,11.23,0,0,0,.83,1.14l.3.35.09.1,0,0a1.83,1.83,0,0,1,0-.52,1.63,1.63,0,0,1,.09-.49,1.68,1.68,0,0,1,.57-.77,2.19,2.19,0,0,1,.91-.4l.24,0h.46l.22,0,.08-.08.1.11.07.07,0,0,.08.08.18.17.19.16.06.05,0,0,.23.18-.07.09a2.17,2.17,0,0,1,.09.44,2.56,2.56,0,0,1,0,.47,2.38,2.38,0,0,1-.09.49,2,2,0,0,1-.2.47,1.77,1.77,0,0,1-.31.38,1.61,1.61,0,0,1-.4.27,1.75,1.75,0,0,1-.47.15,2,2,0,0,1-.52,0l.14.1.17.12.22.14.26.17.3.17.16.09.17.09.34.17c.23.11.47.22.69.3l.32.12.29.1.45.14.17,0a2,2,0,0,1-.32-.41,1.7,1.7,0,0,1-.18-.46,1.66,1.66,0,0,1,.07-1,2.22,2.22,0,0,1,.56-.83l.18-.16.09-.07.1-.07a2.22,2.22,0,0,1,.4-.21l0-.11.29.07h0l.08,0,.24,0,.24,0h.4v.11l.16.16.15.17a2.46,2.46,0,0,1,.26.4,2.19,2.19,0,0,1,.26,1,1.69,1.69,0,0,1-.24.93,1.72,1.72,0,0,1-.32.38l-.2.16-.23.13h1.29l.37,0,.19,0,.19,0,.38,0,.37-.06.17,0,.17,0,.3-.07.25-.07.19-.06.13,0h0a1.79,1.79,0,0,1-.89-.47,1.67,1.67,0,0,1-.45-.85,2.2,2.2,0,0,1,0-1c0-.08,0-.15.07-.23s.06-.15.09-.22l.11-.2.06-.09.06-.09,0-.11.28-.09.33-.13.33-.15,0,0,.09,0,.13-.07.05.1.11,0,.11,0,.22.07.22.09.21.11a2.2,2.2,0,0,1,.73.67,1.67,1.67,0,0,1,.29.92,1.71,1.71,0,0,1,0,.25,1.63,1.63,0,0,1-.05.24,2,2,0,0,1-.22.48l0,0,.11-.06.18-.1.11-.06.12-.07.26-.17.14-.09.14-.1.3-.22.3-.24a10.88,10.88,0,0,0,1-1l.18-.19.13-.15.12-.13-.26.07-.25,0a1.75,1.75,0,0,1-.49,0l-.23-.07-.22-.1a1.77,1.77,0,0,1-.39-.3,2.21,2.21,0,0,1-.51-.86,2.42,2.42,0,0,1-.1-.46,2.21,2.21,0,0,1,0-.45l-.09-.07,0,0,.06-.08.09-.12.07-.09.14-.2.08-.11.06-.1.06-.09,0,0,.05-.09.07-.13.1.06.21-.08.22-.06a2.47,2.47,0,0,1,.47-.06,2.18,2.18,0,0,1,1,.18,1.68,1.68,0,0,1,.74.62,1.7,1.7,0,0,1,.2.45,1.75,1.75,0,0,1,.07.52l.09-.15.21-.41.13-.28.14-.32c.09-.22.19-.46.27-.71l.06-.18,0-.09,0-.09.1-.36,0-.09,0-.09,0-.17.07-.3.08-.46c0-.06,0-.1,0-.13v0l-.08.1Zm-6.24-1.64V116a4.49,4.49,0,0,1-.16.84,4.35,4.35,0,0,1-.31.79l0,.07,0,.07-.06.11,0,.07,0,0,0,.06,0,.06,0,.06-.08.12,0,.05-.06.07,0,0,0,0-.09.1a4.83,4.83,0,0,1-.52.49l-.15.12-.15.11-.15.09,0,0,0,0-.07,0-.21.11-.06,0h0l-.19.09-.19.08-.08,0-.1,0-.06,0-.07,0-.07,0h-.08l-.17,0-.18,0h-.19a4.76,4.76,0,0,1-.72,0h-.39l-.14,0-.14,0h-.06l-.09,0-.1,0-.13,0a4.4,4.4,0,0,1-.66-.25,4.68,4.68,0,0,1-.61-.36l-.11-.08-.08-.06-.07-.06h0l0,0-.11-.1-.11-.1,0,0,0,0,0,0-.07-.07,0,0,0-.05a4.18,4.18,0,0,1-.43-.57,4.77,4.77,0,0,1-.33-.63l-.09-.22,0-.08,0-.06,0-.06,0-.07,0-.14v-.06l0-.09v-.1l0-.13a4.43,4.43,0,0,1,0-1.43l0-.13v-.1l0-.09v-.06l0-.14,0-.07,0-.06,0-.06,0-.08.09-.22a4.78,4.78,0,0,1,.33-.63,4.18,4.18,0,0,1,.43-.57l0-.05,0,0,.07-.07,0,0,0,0,0,0,.11-.1.11-.1,0,0h0l.07-.06.08-.06.11-.08a4.68,4.68,0,0,1,.61-.36,4.4,4.4,0,0,1,.66-.25l.13,0,.1,0,.09,0h.06l.14,0,.14,0h.39a4.77,4.77,0,0,1,.72,0h.19l.18,0,.17,0h.08l.07,0,.07,0,.06,0,.1,0,.08,0,.19.08.19.09h0l.06,0,.21.11.07,0,0,0,0,0,.15.09.15.11.15.12a4.83,4.83,0,0,1,.52.49l.09.1,0,0,0,0,.06.07,0,.05.08.12,0,.06,0,.06,0,.06,0,0,0,.07.06.11,0,.07,0,.07a4.35,4.35,0,0,1,.31.79,4.49,4.49,0,0,1,.16.84v.5Z"/><path class="cls-19" d="M197.2,79.42a3.52,3.52,0,0,0-4.42,5.42l-7.1,11a3.52,3.52,0,0,0-3.41.42l-10.19-8.87a3.52,3.52,0,1,0-6.29,1.07l-8.89,9.67a3.52,3.52,0,1,0,1.15,1.05l8.89-9.67a3.52,3.52,0,0,0,4.34-.67l0,0,9.93,8.64a3.52,3.52,0,1,0,5.7-.7l7.13-11.08a3.52,3.52,0,0,0,3.11-6.27Z"/><path class="cls-19" d="M146.85,177.43a11.9,11.9,0,1,0,11.9,11.9A11.9,11.9,0,0,0,146.85,177.43Zm0,22a10.09,10.09,0,1,1,10.09-10.09A10.09,10.09,0,0,1,146.85,199.42Z"/><path class="cls-19" d="M146.59,189.17l-5.86-3.66a.39.39,0,0,0-.41.66l5.34,3.33-3.48-.43c-.12,0-.24.15-.26.36s0,.4.17.41l4.16.51a1,1,0,1,0,.36-1.18Z"/><g id="_Group_2" data-name=" Group "><path class="cls-1" d="M146,32.52l1.06.08-2.51,6L144.32,42s5.46.84,8.62,1.24l1.7-3.33a1.77,1.77,0,0,1,1.33-.57l.45,0-1.49,4.17-.12,1.67.86,4.3-.45,0a1.77,1.77,0,0,1-1.23-.76l-1.19-3.55c-3.17-.06-8.71,0-8.71,0l-.25,3.39,1.6,6.31-1.06-.08c-.39,0-.68-.61-.68-.61l-4.33-9.34s-1.11,0-4.67-.34-4.87-2-4.87-2,1.5-1.45,5.1-1.24,4.67.34,4.67.34L145.25,33S145.65,32.49,146,32.52Z"/><polygon class="cls-1" points="139.11 38.72 141.11 38.87 140.12 40.38 138.99 40.3 139.11 38.72"/><path class="cls-1" d="M138.88,38.87l-.09,1.25a.52.52,0,0,1-.41-.55l0-.24A.52.52,0,0,1,138.88,38.87Z"/><polygon class="cls-1" points="138.86 46.58 139.99 46.66 140.75 48.3 138.75 48.15 138.86 46.58"/><path class="cls-1" d="M138.59,46.72,138.5,48a.52.52,0,0,1-.41-.55l0-.22A.52.52,0,0,1,138.59,46.72Z"/></g><g id="_Group_3" data-name=" Group "><path class="cls-1" d="M72.86,161.59l.19,1-6.45-.95-3.35.6s.53,5.5.92,8.66l3.65.82a1.77,1.77,0,0,1,.88,1.14l.08.44-4.41-.41-1.64.29-4,1.89-.08-.44a1.77,1.77,0,0,1,.44-1.38l3.14-2c-.72-3.09-2.12-8.45-2.12-8.45l-3.35.6-5.72,3.11-.19-1c-.07-.38.43-.81.43-.81l8-6.5s-.25-1.08-.82-4.61.71-5.2.71-5.2,1.78,1.1,2.46,4.64.82,4.61.82,4.61L72.21,161S72.8,161.23,72.86,161.59Z"/><polygon class="cls-1" points="65.15 156.42 65.5 158.4 63.79 157.81 63.59 156.7 65.15 156.42"/><path class="cls-1" d="M65,156.24l-1.23.22a.52.52,0,0,1,.43-.53l.24,0A.52.52,0,0,1,65,156.24Z"/><polygon class="cls-1" points="57.48 158.12 57.67 159.23 56.27 160.38 55.92 158.4 57.48 158.12"/><path class="cls-1" d="M57.27,157.89l-1.23.22a.52.52,0,0,1,.43-.53l.22,0A.52.52,0,0,1,57.27,157.89Z"/></g><path class="cls-1" d="M208.4,225.82a1.46,1.46,0,1,0,1.46-1.46A1.46,1.46,0,0,0,208.4,225.82Zm.77,0a.69.69,0,1,1,.69.69A.69.69,0,0,1,209.17,225.82Z"/><path class="cls-1" d="M209.9,226.15h-.09a.08.08,0,0,0-.08.07l0,.08a.06.06,0,0,0,.06.08h.16a.06.06,0,0,0,.06-.08l0-.08A.08.08,0,0,0,209.9,226.15Z"/><path class="cls-1" d="M210.12,226l-.06.06a.08.08,0,0,0,0,.11l0,.07a.06.06,0,0,0,.1,0l.11-.11a.06.06,0,0,0,0-.1l-.07,0A.08.08,0,0,0,210.12,226Z"/><path class="cls-1" d="M209.66,226.08l-.06-.06a.08.08,0,0,0-.11,0l-.07,0a.06.06,0,0,0,0,.1l.11.11a.06.06,0,0,0,.1,0l0-.07A.08.08,0,0,0,209.66,226.08Z"/><path class="cls-1" d="M222.83,225.66l.16.63,0,0,.08.15a.68.68,0,0,0-.09.33.69.69,0,1,0,1.09-.56V226l-.15-.57a1.46,1.46,0,1,1-1.11.27Z"/><path class="cls-1" d="M224.08,226.95a.38.38,0,0,0,0-.13v-.12l.08,0a.06.06,0,0,1,.08.06v.16a.06.06,0,0,1-.08.06l-.08,0Z"/><path class="cls-1" d="M224,227.09l.06-.08h0l.07,0a.06.06,0,0,1,0,.1l-.11.11a.06.06,0,0,1-.1,0l0-.07v0A.38.38,0,0,0,224,227.09Z"/><path class="cls-1" d="M223.21,226.68l.14.25,0,0-.08,0a.06.06,0,0,1-.08-.06v-.16A.06.06,0,0,1,223.21,226.68Z"/><path class="cls-1" d="M224.1,226.62v-.18l.05.05a.06.06,0,0,1,0,.1Z"/><path class="cls-1" d="M223.6,227.18l.12,0h.1l0,0,0,.08a.06.06,0,0,1-.06.08h-.16a.06.06,0,0,1-.06-.08l0-.08A.08.08,0,0,1,223.6,227.18Z"/><path class="cls-1" d="M223.33,227h0a.38.38,0,0,0,.15.15.08.08,0,0,1,0,0l0,.07a.06.06,0,0,1-.1,0l-.11-.11a.06.06,0,0,1,0-.1Z"/><path class="cls-1" d="M214.71,223.76l1.15,0-.92,1.19a.12.12,0,0,1-.1,0h-.44a.12.12,0,0,1-.11-.16Z"/><path class="cls-1" d="M193.72,222.2l.68.07-.47.61a.08.08,0,0,1-.07,0h-.3a.08.08,0,0,1-.08-.11Z"/><circle class="cls-1" cx="209.86" cy="225.82" r="0.17"/><path class="cls-1" d="M209.81,225.49h.09a.08.08,0,0,0,.08-.07l0-.08a.06.06,0,0,0-.06-.08h-.16a.06.06,0,0,0-.06.08l0,.08A.08.08,0,0,0,209.81,225.49Z"/><path class="cls-1" d="M209.6,225.62l.06-.06a.08.08,0,0,0,0-.11l0-.07a.06.06,0,0,0-.1,0l-.11.11a.06.06,0,0,0,0,.1l.07,0A.08.08,0,0,0,209.6,225.62Z"/><path class="cls-1" d="M209.53,225.87v-.09a.08.08,0,0,0-.07-.08l-.08,0a.06.06,0,0,0-.08.06v.16a.06.06,0,0,0,.08.06l.08,0A.08.08,0,0,0,209.53,225.87Z"/><path class="cls-1" d="M210.19,225.78v.09a.08.08,0,0,0,.07.08l.08,0a.06.06,0,0,0,.08-.06v-.16a.06.06,0,0,0-.08-.06l-.08,0A.08.08,0,0,0,210.19,225.78Z"/><path class="cls-1" d="M210.06,225.56l.06.06a.08.08,0,0,0,.11,0l.07,0a.06.06,0,0,0,0-.1l-.11-.11a.06.06,0,0,0-.1,0l0,.07A.08.08,0,0,0,210.06,225.56Z"/><path class="cls-1" d="M209.86,224.1h-.16v-.52l.32,0v.5Z"/><path class="cls-1" d="M227.24,222.15a3.93,3.93,0,0,0,1.76-1l.19.66a3.17,3.17,0,0,1-1.74,1.12l-3.92.88-.05-.2a.38.38,0,0,0-.37-.29H223l-.37.09a.38.38,0,0,0-.28.47l0,.16-.17,0-.31-.85A45.17,45.17,0,0,0,227.24,222.15Z"/><path class="cls-1" d="M223.16,223.67l.61,2.38h0v.76a.05.05,0,0,1-.1,0l-.37-.67h0l-.61-2.38a.05.05,0,0,1,0-.06l.37-.09A.05.05,0,0,1,223.16,223.67Z"/><path class="cls-1" d="M182.33,218.11l-2.6-1a1.37,1.37,0,0,0-.48-.09H172.4a.35.35,0,0,0-.28.14l-.73,1a.11.11,0,0,0,.09.17h10.81A.12.12,0,0,0,182.33,218.11Z"/><ellipse class="cls-1" cx="232" cy="213.32" rx="0.56" ry="3.62"/><path class="cls-1" d="M232,217.73c-.35,0-.57.41-.7,1a9.46,9.46,0,0,1-1.18.14c0-.09,0-.18,0-.27l.11-1.87a1.12,1.12,0,0,0-.06-.42,9.42,9.42,0,0,1,1.1.13c.13.57.35,1,.7,1s.46-.25.6-.63a4.82,4.82,0,0,1,1.21.64.19.19,0,0,1,0,.3,4.81,4.81,0,0,1-1.21.64C232.46,218,232.27,217.73,232,217.73Z"/><ellipse class="cls-1" cx="232" cy="221.8" rx="0.56" ry="3.62"/><path class="cls-1" d="M216.42,212.83a.49.49,0,0,0,.2-.94,16.22,16.22,0,0,0-7.17-1.35,34.16,34.16,0,0,0-10.74,1.66v.72s6.94.28,10.74.28C211.93,213.18,214.75,213,216.42,212.83Z"/><path class="cls-1" d="M216.79,221.76l-2.64-8.37.85,0,2.65,8.4c.43.06.73.22.73.42s-.49.44-1.1.44-1.1-.2-1.1-.44S216.43,221.84,216.79,221.76Z"/><path class="cls-1" d="M227.83,215.74a24.29,24.29,0,0,0,0,3.52l-6.55.37a42.29,42.29,0,0,1,0-4.47l0,0Z"/><path class="cls-1" d="M228.16,215.77l1.05.09a.78.78,0,0,1,.71.82l-.11,1.87a3.61,3.61,0,0,1-1.48,2.71A27,27,0,0,1,228.16,215.77Z"/><path class="cls-1" d="M221.29,220l6.55-.37q.07.9.19,1.87a3.6,3.6,0,0,1-.88.37,45.15,45.15,0,0,1-5.55,1.11Q221.39,221.47,221.29,220Z"/><path class="cls-1" d="M167.51,207.44l-.37-.74,4.57-.56a1.68,1.68,0,0,1,1.49.59l.3.36Z"/><path class="cls-1" d="M176.72,220l-1.81-.22a2.56,2.56,0,0,1-1.81-1.1h3.63Z"/><rect class="cls-1" x="200.19" y="217.47" width="3.02" height="4.19" rx="0.5" ry="0.5"/><path class="cls-1" d="M169.81,207.63l6.21,9.08H172.4a.68.68,0,0,0-.27.06l-4.45-9Z"/><path class="cls-1" d="M182.73,218.3a.44.44,0,0,1-.44.37h-5.24V220c8.45,1,29.72,3.41,37.23,3.41a53.72,53.72,0,0,0,7-.45,40.9,40.9,0,0,1-.36-8,24,24,0,0,0-3.87-2,.88.88,0,0,1-.57.25l-1.13.08,2.57,8.13c.51.12.81.37.81.71,0,.53-.74.77-1.43.77s-1.43-.24-1.43-.77c0-.26.18-.48.52-.62l-2.56-8.13c-1,.07-2.09.12-3.11.12l-1.79,0c-3,0-10.17,2.42-10.17,2.42h-3.81l-.34,0L184.8,215a12.13,12.13,0,0,1-8.19-4.27l-2.84-3.37-3.59.22,6.22,9.1h2.83a1.69,1.69,0,0,1,.6.11l2.6,1A.44.44,0,0,1,182.73,218.3Zm37.42-3.42-3.5,1.47-.86-2.72.71,0a1.25,1.25,0,0,0,.6-.2A24.11,24.11,0,0,1,220.15,214.88Zm-11.76-.12a.87.87,0,0,1,.67-.82l4.52-.12,1,2.89-5.42.21a.72.72,0,0,1-.77-.72Zm-1.28,2.13-4.8-.16a.56.56,0,0,1-.42-.26l-.3-.48a.13.13,0,0,1,.08-.2,23.09,23.09,0,0,1,2.79-.91c.54-.11,2.09-.58,2.57-.63h.14a.56.56,0,0,1,.54.55v1.55A.56.56,0,0,1,207.12,216.89ZM199.86,218a.83.83,0,0,1,.83-.83h2a.83.83,0,0,1,.83.83v3.19a.83.83,0,0,1-.83.83h-2a.83.83,0,0,1-.83-.83Z"/><path class="cls-1" d="M112.7,219.81v-4.54a20,20,0,0,1-8.12-2l1.43-5.59a16.84,16.84,0,0,0,7.92,2.1c2.77,0,4.63-1.1,4.63-3s-1.53-3-5.11-4.16c-5.11-1.72-8.59-4.1-8.59-8.73,0-4.25,3-7.54,8.06-8.49v-4.54h4.68v4.2a17.3,17.3,0,0,1,7,1.58L123.18,192a14.86,14.86,0,0,0-6.88-1.67c-3.1,0-4.1,1.38-4.1,2.72,0,1.53,1.67,2.58,5.78,4.06,5.68,2,7.92,4.63,7.92,9s-3,7.88-8.45,8.79v4.88Z"/><path class="cls-20" d="M82.87,25.53l.57,0a6.8,6.8,0,1,0-6-10,6.8,6.8,0,0,0,5.45,10Zm.56-11.94a5.17,5.17,0,1,1-5.17,5.17A5.17,5.17,0,0,1,83.43,13.58Z"/><g class="cls-21"><path class="cls-22" d="M82.87,25.53l.57,0a6.8,6.8,0,1,0-6-10,6.8,6.8,0,0,0,5.45,10Zm.56-11.94a5.17,5.17,0,1,1-5.17,5.17A5.17,5.17,0,0,1,83.43,13.58Z"/></g><path class="cls-1" d="M69.31,21l3.16.39a11.18,11.18,0,0,0,1.32,3.2l-2,2.51a1.08,1.08,0,0,0,0,1.52l.85.85.85.85a1.08,1.08,0,0,0,1.52,0l2.51-2a11.22,11.22,0,0,0,3.2,1.32l.39,3.16A1.08,1.08,0,0,0,82.23,34h2.4a1.08,1.08,0,0,0,1.08-1.08l.39-3.16a11.21,11.21,0,0,0,3.2-1.32l2.51,2a1.08,1.08,0,0,0,1.52,0l.85-.85.85-.85a1.08,1.08,0,0,0,0-1.52l-2-2.51a11.21,11.21,0,0,0,1.32-3.2L97.55,21A1.08,1.08,0,0,0,98.63,20V17.55a1.08,1.08,0,0,0-1.08-1.08l-3.16-.39a11.24,11.24,0,0,0-1.32-3.2l2-2.51a1.08,1.08,0,0,0,0-1.52L94.18,8l-.85-.85a1.08,1.08,0,0,0-1.52,0l-2.51,2a11.24,11.24,0,0,0-3.2-1.32l-.39-3.16a1.08,1.08,0,0,0-1.08-1.08H82.23a1.08,1.08,0,0,0-1.08,1.08l-.39,3.16a11.22,11.22,0,0,0-3.2,1.32l-2.51-2a1.08,1.08,0,0,0-1.52,0L72.68,8l-.85.85a1.08,1.08,0,0,0,0,1.52l2,2.51a11.22,11.22,0,0,0-1.32,3.2l-3.16.39a1.08,1.08,0,0,0-1.08,1.08V20A1.08,1.08,0,0,0,69.31,21Zm5.83-3A8.32,8.32,0,0,1,82,10.55a8.41,8.41,0,0,1,1.42-.12,8.32,8.32,0,0,1,0,16.64l-.69,0A8.32,8.32,0,0,1,75.14,18.07Z"/><path class="cls-20" d="M98.17,27.83c.17,1.2-1.63,3.32-.88,4.28s3.19-.32,4.36.15,2.1,3.07,3.26,2.9,1.35-3,2.31-3.71,3.67-.2,4.14-1.37-1.89-2.69-2.06-3.85,1.63-3.32.89-4.27-3.19.32-4.36-.14-2.1-3.07-3.26-2.9-1.35,3-2.31,3.71-3.67.2-4.14,1.37S98,26.67,98.17,27.83Zm3.2-1.75a2.55,2.55,0,1,1,1.42,3.31A2.55,2.55,0,0,1,101.37,26.09Z"/><g class="cls-23"><path class="cls-24" d="M98.17,27.83c.17,1.2-1.63,3.32-.88,4.28s3.19-.32,4.36.15,2.1,3.07,3.26,2.9,1.35-3,2.31-3.71,3.67-.2,4.14-1.37-1.89-2.69-2.06-3.85,1.63-3.32.89-4.27-3.19.32-4.36-.14-2.1-3.07-3.26-2.9-1.35,3-2.31,3.71-3.67.2-4.14,1.37S98,26.67,98.17,27.83Zm3.2-1.75a2.55,2.55,0,1,1,1.42,3.31A2.55,2.55,0,0,1,101.37,26.09Z"/></g><g class="cls-25"><path class="cls-26" d="M69.31,21l3.16.39a11.18,11.18,0,0,0,1.32,3.2l-2,2.51a1.08,1.08,0,0,0,0,1.52l.85.85.85.85a1.08,1.08,0,0,0,1.52,0l2.51-2a11.22,11.22,0,0,0,3.2,1.32l.39,3.16A1.08,1.08,0,0,0,82.23,34h2.4a1.08,1.08,0,0,0,1.08-1.08l.39-3.16a11.21,11.21,0,0,0,3.2-1.32l2.51,2a1.08,1.08,0,0,0,1.52,0l.85-.85.85-.85a1.08,1.08,0,0,0,0-1.52l-2-2.51a11.21,11.21,0,0,0,1.32-3.2L97.55,21A1.08,1.08,0,0,0,98.63,20V17.55a1.08,1.08,0,0,0-1.08-1.08l-3.16-.39a11.24,11.24,0,0,0-1.32-3.2l2-2.51a1.08,1.08,0,0,0,0-1.52L94.18,8l-.85-.85a1.08,1.08,0,0,0-1.52,0l-2.51,2a11.24,11.24,0,0,0-3.2-1.32l-.39-3.16a1.08,1.08,0,0,0-1.08-1.08H82.23a1.08,1.08,0,0,0-1.08,1.08l-.39,3.16a11.22,11.22,0,0,0-3.2,1.32l-2.51-2a1.08,1.08,0,0,0-1.52,0L72.68,8l-.85.85a1.08,1.08,0,0,0,0,1.52l2,2.51a11.22,11.22,0,0,0-1.32,3.2l-3.16.39a1.08,1.08,0,0,0-1.08,1.08V20A1.08,1.08,0,0,0,69.31,21Zm5.83-3A8.32,8.32,0,0,1,82,10.55a8.41,8.41,0,0,1,1.42-.12,8.32,8.32,0,0,1,0,16.64l-.69,0A8.32,8.32,0,0,1,75.14,18.07Z"/></g><g class="cls-27"><path class="cls-28" d="M165.3,153.21a21.3,21.3,0,0,0,4.7-11.5,11.74,11.74,0,1,0-23.48,0,21.35,21.35,0,0,0,4.7,11.5,6.27,6.27,0,0,1,1,2.89h-1.58v1.61h12.69v1.35H150.63v1.61h15.27v-1.61h-1v-1.35h1V156.1h-1.57A6.21,6.21,0,0,1,165.3,153.21ZM152,144l1.59-.29.1.56.64-.29H155l1.46.66,1.46-.66h.66l1.46.66,1.46-.66h.66l.64.29.1-.56,1.59.29-2.18,12.12h-1.64l1.84-10.21-.67-.3-1.46.66h-.66l-1.46-.66-1.46.66h-.66l-1.46-.66-.68.3,1.84,10.21H154.2Z"/></g><g class="cls-29"><rect class="cls-30" x="153.27" y="162.03" width="9.98" height="1.61"/></g><g class="cls-31"><path class="cls-32" d="M59.08,27.44V43.79a3.88,3.88,0,0,1-.2,6.94v-3.3l-1.63-.94-1.63.94v3.3a3.88,3.88,0,0,1-.2-6.94V27.44a3.88,3.88,0,0,1,.2-6.94v3.3l1.63.94,1.63-.94V20.5a3.87,3.87,0,0,1,.2,6.93Z"/></g><g class="cls-33"><g class="cls-34"><path class="cls-35" d="M81.26,57.44,90,60.29a12.41,12.41,0,0,1-3.59,4.26Z"/></g><g class="cls-36"><path class="cls-37" d="M79.09,54.33V39.21a14.44,14.44,0,0,1,4.42.75,15.36,15.36,0,0,1,10,19Z"/></g><g class="cls-38"><path class="cls-39" d="M78.76,67.14a12.57,12.57,0,0,1-8.89-21.47,12.11,12.11,0,0,1,6.92-3.56V55.22l.71,1,7,9.59a12.62,12.62,0,0,1-5.71,1.37Z"/></g></g><g class="cls-40"><polygon class="cls-41" points="173.51 173.33 170.78 176.88 173.65 176.88 173.65 199.01 178.82 199.01 178.82 176.88 181.69 176.88 178.96 173.33 176.24 169.78 173.51 173.33"/></g><rect class="cls-18" x="218.97" y="152.68" width="2.84" height="24.42"/><rect class="cls-18" x="200.72" y="152.68" width="17.68" height="24.42"/><path class="cls-18" d="M193.59,152.68h3.16v24.42h-3.16a1.56,1.56,0,0,1-1.56-1.56V154.24A1.56,1.56,0,0,1,193.59,152.68Z"/><path class="cls-18" d="M222.37,152.68h3.16a1.56,1.56,0,0,1,1.56,1.56v21.31a1.56,1.56,0,0,1-1.56,1.56h-3.16Z"/><rect class="cls-18" x="197.32" y="152.68" width="2.84" height="24.42"/><path class="cls-18" d="M206.64,147.5h5.84a2.07,2.07,0,0,1,2.07,2.07v1.58h-1v-1.58a1.09,1.09,0,0,0-1.08-1.08h-5.84a1.09,1.09,0,0,0-1.08,1.08v1.58h-1v-1.58A2.07,2.07,0,0,1,206.64,147.5Z"/><path class="cls-18" d="M212.37,152.27h3.46a.66.66,0,0,0-.66-.66H213a.66.66,0,0,0-.66.66Z"/><path class="cls-18" d="M203.33,152.27h3.46a.66.66,0,0,0-.66-.66H204a.66.66,0,0,0-.66.66Z"/><path class="cls-42" d="M72.6,199.18,71.79,196l5,1.35a1.19,1.19,0,0,0,1.39-1.3l-.68-6.55a3.48,3.48,0,0,0-1.85-2.7,3.54,3.54,0,0,1-2-3.3c0-1.39,1.47-2.44,2.94-2.44a4.64,4.64,0,0,1,4.25,4.11c.35,2.06.78,10.31,1,14.93a2.47,2.47,0,0,1-3,2.54l-6.29-1.29A4.11,4.11,0,0,0,72.6,199.18Z"/><path class="cls-42" d="M38.41,185.14A4.64,4.64,0,0,1,42.66,181c1.47,0,2.94,1,2.94,2.44a3.54,3.54,0,0,1-2,3.3,3.48,3.48,0,0,0-1.85,2.7L41.11,196a1.19,1.19,0,0,0,1.39,1.3l5-1.35-.81,3.21a4.11,4.11,0,0,0,0,2.14l-6.29,1.29a2.47,2.47,0,0,1-3-2.54C37.63,195.45,38.06,187.2,38.41,185.14Z"/><path class="cls-42" d="M50.63,203.64h18a3.45,3.45,0,0,0,3.34-4.29L70,191.75a3.54,3.54,0,0,0-3.43-2.67H52.64a3.54,3.54,0,0,0-3.43,2.67l-1.92,7.59A3.45,3.45,0,0,0,50.63,203.64Zm-.74-4.29,1.51-6a2.79,2.79,0,0,1,2.71-2.11h11a2.79,2.79,0,0,1,2.71,2.11l1.51,6a2.72,2.72,0,0,1-2.64,3.39H52.53A2.72,2.72,0,0,1,49.89,199.35Z"/><rect class="cls-42" x="57.92" y="204.15" width="3.39" height="12.66"/><polygon class="cls-42" points="59.62 193.59 58.77 196.2 56.03 196.2 58.25 197.81 57.4 200.42 59.62 198.81 61.84 200.42 60.99 197.81 63.21 196.2 60.46 196.2 59.62 193.59"/><path class="cls-18" d="M2.47,13.85c0,2.76,1.33,4.35,4.07,5.26V16.66l.31-.09A60.86,60.86,0,0,1,22,14.86a61.56,61.56,0,0,1,15.17,1.71l.31.09v2.46c2.74-.92,4.07-2.51,4.07-5.26C41.5,6,30.33.79,22,.79S2.47,6,2.47,13.85ZM33.07,9.6H25.41l-.75,1.27a9.83,9.83,0,0,0,.21-1.65L25,9h8.7a.09.09,0,0,1,.06.15l-.37.33A.49.49,0,0,1,33.07,9.6Zm-1.54.79H25.24l.37-.61h6.57a.09.09,0,0,1,.06.15l-.37.33A.49.49,0,0,1,31.53,10.38ZM30,11.17H24.76l.37-.61h5.51a.09.09,0,0,1,.06.15l-.37.33A.49.49,0,0,1,30,11.17Zm-5.66.77.33-.61h4.43a.09.09,0,0,1,.06.15l-.37.33a.49.49,0,0,1-.33.13Zm-.11-2h.44a5.82,5.82,0,0,1-.44,1.76Zm-.72,0h.59v2a2.28,2.28,0,0,1-.59.68Zm-.72,0h.59v2.8a2.15,2.15,0,0,1-.59.26Zm-.72,0h.59V13a3,3,0,0,1-.59.06Zm-2.77-.22c0-.49-.06-1-.07-1.54a.06.06,0,0,1,.11,0,1.52,1.52,0,0,0,1.11.46,2.62,2.62,0,0,0,1.42-.5.21.21,0,0,1,.25,0,2.62,2.62,0,0,0,1.42.5,1.52,1.52,0,0,0,1.11-.46.06.06,0,0,1,.11,0c0,.53,0,1.05-.07,1.54Zm2,.22h.59v3.16a3,3,0,0,1-.59-.06Zm-.72,0h.59V13a2.15,2.15,0,0,1-.59-.26Zm-.72,0h.59v2.71a2.28,2.28,0,0,1-.59-.68Zm-.14,1.76A5.82,5.82,0,0,1,19.31,10h.44Zm-4.87-.38h4.43l.33.61H15.52a.49.49,0,0,1-.33-.13l-.37-.33A.09.09,0,0,1,14.87,11.33Zm-1.54-.77h5.51l.37.61H14a.49.49,0,0,1-.33-.13l-.37-.33A.09.09,0,0,1,13.34,10.56ZM11.8,9.77h6.57l.37.61H12.44a.49.49,0,0,1-.33-.13l-.37-.33A.09.09,0,0,1,11.8,9.77ZM10.26,9H19l.13.22a9.82,9.82,0,0,0,.21,1.65L18.56,9.6H10.9a.49.49,0,0,1-.33-.13l-.37-.33A.09.09,0,0,1,10.26,9Z"/><path class="cls-18" d="M36,23.8c-.4.08-.89.16-1.49.25V20.5L36,20.35Z"/><path class="cls-18" d="M8,23.8c.4.08.89.16,1.49.25V20.5L8,20.35Z"/><path class="cls-18" d="M38,21.85c0,.69-.21,1.24-.47,1.24V20.61C37.82,20.61,38,21.17,38,21.85Z"/><path class="cls-18" d="M5.94,21.85c0-.69.21-1.24.47-1.24v2.48C6.15,23.09,5.94,22.54,5.94,21.85Z"/><path class="cls-18" d="M35.7,29.61a4.41,4.41,0,0,0,1-3.37c-.14-.71-.25-1.3-.35-1.78-1.5.42-5.25,1-14.21,1a90,90,0,0,1-12.5-.67,18.16,18.16,0,0,1-2-.39c-.1.48-.21,1.08-.35,1.8a4.41,4.41,0,0,0,1,3.38c2.27,2.66,8,2.89,13.71,2.89S33.43,32.28,35.7,29.61Zm-17,1.16c0,.15-.46.21-1,.14a1.68,1.68,0,0,1-.87-.31l-.28,0L16,30.47l.06,0c.42.22.71.49.65.6s-.45,0-.86-.2-.71-.49-.65-.6v0q-.51-.13-1-.27a2.82,2.82,0,0,1,.33.3c.33.34.52.69.43.78s-.43-.12-.76-.46-.5-.65-.44-.76l-.79-.3a2.73,2.73,0,0,1,.24.39c.21.42.29.8.18.86s-.38-.24-.59-.65a1.64,1.64,0,0,1-.23-.77q-.39-.18-.73-.36a2.55,2.55,0,0,1,.22.48c.15.44.18.83.06.87s-.34-.28-.49-.72a1.5,1.5,0,0,1-.11-.81q-.34-.2-.63-.4a2.67,2.67,0,0,1,.18.59c.09.48.07.89-.05.92s-.3-.35-.4-.83a1.57,1.57,0,0,1,0-.88c-.2-.15-.38-.3-.55-.45a2.9,2.9,0,0,1,.08.56c0,.5,0,.9-.17.91s-.25-.39-.28-.88a1.82,1.82,0,0,1,.1-.85A6.54,6.54,0,0,1,9.45,27a3.52,3.52,0,0,1,.12.48c.09.52.06,1-.06,1s-.3-.38-.39-.91a1.49,1.49,0,0,1,0-1A3.31,3.31,0,0,1,8.8,26,.13.13,0,0,1,9,25.88a3.45,3.45,0,0,0,.41.7,2.28,2.28,0,0,1,.85-.21c.53,0,1,0,1,.14s-.41.27-.93.31a3,3,0,0,1-.7,0,6.59,6.59,0,0,0,.55.6,2.46,2.46,0,0,1,.86-.23c.54-.06,1,0,1,.11s-.41.28-1,.34a3.42,3.42,0,0,1-.65,0q.22.19.48.39a2.28,2.28,0,0,1,.9-.3c.55-.09,1-.07,1,.06s-.4.3-1,.39a3.42,3.42,0,0,1-.69.05q.27.19.59.38a2.86,2.86,0,0,1,.92-.33c.58-.12,1.08-.12,1.1,0s-.43.32-1,.45a4.22,4.22,0,0,1-.64.09l.62.31a2.27,2.27,0,0,1,1-.38c.59-.12,1.08-.12,1.11,0s-.43.32-1,.45a4,4,0,0,1-.73.09q.41.17.86.33a2.9,2.9,0,0,1,1-.36c.62-.13,1.14-.14,1.16,0s-.45.33-1.07.46a5,5,0,0,1-.56.09l.89.24a2.66,2.66,0,0,1,1-.38c.62-.13,1.14-.14,1.16,0s-.45.33-1.07.46l-.48.08.48.09.42.07a2.36,2.36,0,0,1,.75,0C18.27,30.45,18.67,30.63,18.65,30.78ZM35.17,26a3.31,3.31,0,0,1-.35.64,1.49,1.49,0,0,1,0,1c-.09.52-.26.93-.39.91s-.15-.46-.06-1a3.51,3.51,0,0,1,.12-.48,6.55,6.55,0,0,1-.46.51,1.82,1.82,0,0,1,.1.85c0,.5-.16.89-.28.88s-.2-.42-.17-.91a2.9,2.9,0,0,1,.08-.56c-.16.15-.35.3-.55.45a1.57,1.57,0,0,1,0,.88c-.09.48-.27.85-.4.83s-.15-.43-.05-.92a2.67,2.67,0,0,1,.18-.59q-.29.2-.63.4a1.51,1.51,0,0,1-.11.81c-.15.44-.37.76-.49.72s-.09-.43.06-.87A2.56,2.56,0,0,1,32,29q-.34.19-.73.36a1.64,1.64,0,0,1-.23.77c-.21.42-.48.71-.59.65s0-.44.18-.86a2.73,2.73,0,0,1,.24-.39l-.79.3c.06.11-.13.44-.44.76s-.67.55-.76.46.1-.44.43-.78a2.82,2.82,0,0,1,.33-.3q-.46.14-1,.27v0c.06.11-.23.38-.65.6s-.81.31-.86.2.23-.38.65-.6l.06,0-.49.09-.28,0a1.68,1.68,0,0,1-.87.31c-.52.07-1,0-1-.14s.39-.33.91-.4a2.36,2.36,0,0,1,.75,0l.42-.07.48-.09-.48-.08c-.62-.13-1.09-.34-1.07-.46s.55-.12,1.16,0a2.66,2.66,0,0,1,1,.38l.89-.24a5,5,0,0,1-.56-.09c-.62-.13-1.09-.34-1.07-.46s.55-.12,1.16,0a2.9,2.9,0,0,1,1,.36q.46-.16.86-.33a4,4,0,0,1-.73-.09c-.59-.12-1-.32-1-.45s.52-.12,1.11,0a2.27,2.27,0,0,1,1,.38l.62-.31a4.22,4.22,0,0,1-.64-.09c-.58-.12-1-.32-1-.45s.52-.12,1.1,0a2.86,2.86,0,0,1,.92.33q.32-.19.59-.38a3.42,3.42,0,0,1-.69-.05c-.55-.09-1-.27-1-.39s.48-.15,1-.06a2.28,2.28,0,0,1,.9.3q.26-.2.48-.39a3.42,3.42,0,0,1-.65,0c-.54-.06-1-.22-1-.34s.47-.18,1-.11a2.46,2.46,0,0,1,.86.23,6.59,6.59,0,0,0,.55-.6,3,3,0,0,1-.7,0c-.53,0-.94-.19-.93-.31s.45-.19,1-.14a2.28,2.28,0,0,1,.85.21,3.45,3.45,0,0,0,.41-.7.13.13,0,0,1,.25.09Z"/><path class="cls-18" d="M7,28.09a4.43,4.43,0,0,0,.93,1.8c2.39,2.8,8.24,3,14,3s11.65-.23,14-3a4.43,4.43,0,0,0,.93-1.8c.26,5.88-7.52,6.28-15,6.28S6.76,34,7,28.09Z"/><path class="cls-18" d="M22,21.35c-9.69,0-13.92-.52-15-.69V17a59.77,59.77,0,0,1,15-1.7A60.47,60.47,0,0,1,37,17v3.68C35.9,20.83,31.67,21.35,22,21.35Z"/><path class="cls-18" d="M22,24.31c9.69,0,13.92-.87,15-1.15v.59s-1.94,1.33-14.9,1.33S7,23.75,7,23.75v-.59C8.07,23.44,12.3,24.31,22,24.31Z"/><rect class="cls-43" x="189.64" y="-6.01" width="1.37" height="31.86" transform="translate(180.12 200.24) rotate(-89.91)"/><rect class="cls-44" x="185.15" y="13.54" width="9.18" height="1.96" transform="translate(174.7 204.22) rotate(-89.84)"/><rect class="cls-44" x="185.4" y="30.15" width="1.12" height="4.22"/><rect class="cls-44" x="193.2" y="30.15" width="1.11" height="4.22"/><path class="cls-44" d="M180.06,31.87a1.94,1.94,0,0,0-.6.85.63.63,0,0,0,0,.45,1,1,0,0,0,.44.4h0a4.26,4.26,0,0,0,2.08.32h21.64V35H182a5.29,5.29,0,0,1-2.61-.44h0a2,2,0,0,1-.93-.91,1.71,1.71,0,0,1-.09-1.24,3,3,0,0,1,.93-1.37Z"/><ellipse class="cls-18" cx="189.36" cy="23.33" rx="10.41" ry="8.25"/><polygon class="cls-45" points="191.6 15.27 211.01 15.27 211.01 17.36 191.6 19.45 191.6 15.27"/><polygon class="cls-46" points="208.95 12.06 211.01 12.06 211.01 16.32 207.23 16.12 208.95 12.06"/><path class="cls-47" d="M189.51,15.23v10.7H179.39C177,19.42,183.78,14.67,189.51,15.23Z"/><ellipse class="cls-44" cx="189.7" cy="10.17" rx="0.96" ry="0.81"/><path class="cls-44" d="M189.7,11.37a1.28,1.28,0,0,1-1.35-1.2,1.36,1.36,0,0,1,2.7,0A1.28,1.28,0,0,1,189.7,11.37Zm0-1.62c-.31,0-.57.19-.57.42s.26.42.57.42.56-.19.56-.42S190,9.75,189.7,9.75Z"/><ellipse class="cls-48" cx="193.78" cy="26.08" rx="3.09" ry="1.82"/><polygon class="cls-49" points="179.18 25.28 189.12 25.2 189.12 15.23 189.9 15.23 189.9 25.93 189.9 26.32 189.51 26.32 179.7 26.32 179.18 25.28"/><path class="cls-50" d="M16.91,199.65l-3.13,1.74h.17a9.87,9.87,0,0,1,8.84,14.27L26,217.49a13.53,13.53,0,0,0-12-19.75h0Z"/><path class="cls-51" d="M22.4,219.77l.06-3.5a9.87,9.87,0,0,1-16.7.5l-3.17,1.83a13.53,13.53,0,0,0,23-.51Z"/><path class="cls-18" d="M2.23,214.46l3.31,2a9.87,9.87,0,0,1,7.62-15v-3.66a13.53,13.53,0,0,0-11.07,20Z"/><path class="cls-18" d="M27.6,172.22c0-.16,0-.32,0-.48a5.83,5.83,0,1,0-8.56,5.16,5.83,5.83,0,0,0,8.54-4.67Zm-10.23-.48a4.43,4.43,0,1,1,4.43,4.43A4.43,4.43,0,0,1,17.36,171.75Z"/><path class="cls-18" d="M23.75,183.85l.33-2.71A9.58,9.58,0,0,0,26.82,180L29,181.68a.92.92,0,0,0,1.3,0L31,181l.73-.73a.92.92,0,0,0,0-1.31l-1.68-2.15A9.61,9.61,0,0,0,31.19,174l2.71-.33a.92.92,0,0,0,.92-.92v-2.06a.92.92,0,0,0-.92-.92l-2.71-.33a9.61,9.61,0,0,0-1.13-2.74l1.68-2.15a.92.92,0,0,0,0-1.3l-.73-.73-.73-.73a.92.92,0,0,0-1.31,0l-2.15,1.68a6.66,6.66,0,0,0-2.74-1.13l-.33-2.71a.92.92,0,0,0-.92-.92H20.76a.92.92,0,0,0-.92.92l-.33,2.71a9.64,9.64,0,0,0-2.74,1.13l-2.15-1.68a.92.92,0,0,0-1.3,0l-.73.73-.73.73a.92.92,0,0,0,0,1.3l1.68,2.15a9.63,9.63,0,0,0-1.14,2.74l-2.71.33a.92.92,0,0,0-.92.92v2.06a.92.92,0,0,0,.92.92l2.71.33a9.61,9.61,0,0,0,1.14,2.74l-1.68,2.15a.92.92,0,0,0,0,1.3l.73.73.73.73a.92.92,0,0,0,1.31,0L16.76,180a9.62,9.62,0,0,0,2.74,1.13l.33,2.71a.92.92,0,0,0,.92.92h2.06A.92.92,0,0,0,23.75,183.85Zm-2.54-5a7.13,7.13,0,0,1-6.44-5.9,7.13,7.13,0,0,1,5.82-8.23,7.13,7.13,0,0,1,8.34,7c0,.2,0,.39,0,.59A7.13,7.13,0,0,1,21.21,178.85Z"/><path class="cls-52" d="M3.43,169.4q0-.23.06-.45"/><path class="cls-53" d="M3.75,167.63a18.52,18.52,0,0,1,16.92-14.36"/><path class="cls-52" d="M21.33,153.25h.46"/><polygon class="cls-54" points="0.79 168.83 6.2 169.25 3.29 171.75 0.79 168.83"/><rect class="cls-1" x="70.03" y="107.97" width="24.42" height="34.23" rx="1.09" ry="1.09"/><g class="cls-55"><rect class="cls-56" x="70.03" y="107.97" width="24.42" height="34.23" rx="1.09" ry="1.09"/></g><polygon class="cls-57" points="90.58 112.31 73.92 112.31 72.2 112.31 72.2 115.34 73.92 115.34 90.58 115.34 92.29 115.34 92.29 112.31 90.58 112.31"/><polygon class="cls-58" points="90.58 117.32 73.92 117.32 72.2 117.32 72.2 118.84 73.92 118.84 90.58 118.84 92.29 118.84 92.29 117.32 90.58 117.32"/><polygon class="cls-58" points="91.43 124.7 83.1 124.7 82.25 124.7 82.25 126.22 83.1 126.22 91.43 126.22 92.29 126.22 92.29 124.7 91.43 124.7"/><polygon class="cls-59" points="79.41 121.2 72.88 121.2 72.2 121.2 72.2 130.1 72.88 130.1 79.41 130.1 80.08 130.1 80.08 121.2 79.41 121.2"/><polygon class="cls-58" points="91.43 128.39 83.1 128.39 82.25 128.39 82.25 129.91 83.1 129.91 91.43 129.91 92.29 129.91 92.29 128.39 91.43 128.39"/><polygon class="cls-58" points="90.96 132.08 78 132.08 76.67 132.08 76.67 133.6 78 133.6 90.96 133.6 92.29 133.6 92.29 132.08 90.96 132.08"/><polygon class="cls-58" points="91.36 135.77 90.45 135.77 89.53 135.77 82.37 135.77 81.45 135.77 80.59 135.77 79.67 135.77 79.67 137.29 80.59 137.29 81.45 137.29 82.37 137.29 89.53 137.29 90.45 137.29 91.36 137.29 92.29 137.29 92.29 135.77 91.36 135.77"/><polygon class="cls-58" points="91.43 121.01 83.1 121.01 82.25 121.01 82.25 122.53 83.1 122.53 91.43 122.53 92.29 122.53 92.29 121.01 91.43 121.01"/><g class="cls-60"><rect class="cls-61" x="70.03" y="107.97" width="24.42" height="34.23" rx="1.09" ry="1.09"/></g><circle class="cls-49" cx="73.54" cy="138.69" r="5.32"/><path class="cls-26" d="M72.15,137a1.39,1.39,0,1,1,2.78,0v1.21l.74.07V137a2.13,2.13,0,1,0-4.25,0v1.28l.74-.07Z"/><path class="cls-1" d="M76.34,138.33A.36.36,0,0,0,76,138a15.17,15.17,0,0,0-2.47-.17h0a15.17,15.17,0,0,0-2.47.17.36.36,0,0,0-.33.33l-.2,3.45a.36.36,0,0,0,.33.33,16.85,16.85,0,0,0,2.67.18h0a16.85,16.85,0,0,0,2.67-.18.36.36,0,0,0,.33-.33Zm-2.3,3h-1a.17.17,0,0,1-.17-.17l.31-1.2a.65.65,0,1,1,.65,0l.34,1.2A.17.17,0,0,1,74,141.36Z"/><circle class="cls-1" cx="11.29" cy="121.24" r="2.66"/><path class="cls-1" d="M10,134.55H7.3v-6.66A2.67,2.67,0,0,1,10,125.23h8v2.66H10Z"/><polygon class="cls-1" points="15.29 142.54 12.62 142.54 12.62 134.55 11.29 134.55 11.29 142.54 8.63 142.54 8.63 131.89 15.29 131.89 15.29 142.54"/><rect class="cls-1" x="8.63" y="126.56" width="6.66" height="7.99"/><circle class="cls-1" cx="35.26" cy="121.24" r="2.66"/><path class="cls-1" d="M39.25,134.55H36.59v-6.66h-8v-2.66h8a2.67,2.67,0,0,1,2.66,2.66Z"/><polygon class="cls-1" points="37.92 142.54 35.26 142.54 35.26 134.55 33.92 134.55 33.92 142.54 31.26 142.54 31.26 131.89 37.92 131.89 37.92 142.54"/><rect class="cls-1" x="31.26" y="126.56" width="6.66" height="7.99"/><circle class="cls-1" cx="23.27" cy="121.24" r="2.66"/><rect class="cls-1" x="20.61" y="126.56" width="5.33" height="15.98"/><path class="cls-1" d="M27.27,133.22H24.6v-5.33H21.94v5.33H19.28v-5.33a2.67,2.67,0,0,1,2.66-2.66H24.6a2.67,2.67,0,0,1,2.66,2.66Z"/><polygon class="cls-19" points="116 43.93 112.78 40.71 116 37.5 115.12 36.62 111.91 39.84 108.69 36.62 107.81 37.5 111.03 40.71 107.81 43.93 108.69 44.81 111.91 41.59 115.12 44.81 116 43.93"/><polygon class="cls-19" points="186.91 143.46 183.69 140.24 186.91 137.02 186.03 136.15 182.82 139.36 179.6 136.15 178.72 137.02 181.94 140.24 178.72 143.46 179.6 144.33 182.82 141.12 186.03 144.33 186.91 143.46"/></g></g></svg>