<svg id="Layer_1" data-name="Layer 1" xmlns="http://www.w3.org/2000/svg" viewBox="0 0 400 234"><defs><style>.cls-1{fill:#2374b8;}.cls-2{fill:#be202e;}</style></defs><title>IdeaArtboard 1</title><path class="cls-1" d="M196.28,229.69l-43.08-5.52c-15.84,5.52-35.36,8.1-54.87,8.1-43.46,0-86.54-13.63-93.54-40.14C1.47,179.6,0,164.87,0,149.77,0,135,1.47,119.95,4.79,107.05,11.42,80.17,54.5,66.55,98,66.55s86.91,13.63,93.9,41.25c2.95,11.42,4.42,25,4.42,38.67ZM153.2,149c0-11.79-.74-23.57-2.58-33.51-4.05-22.1-28-33.14-52.66-33.14-23.94,0-48.61,11-52.29,32.77a203.67,203.67,0,0,0-2.58,34.62,203.61,203.61,0,0,0,2.58,34.61c3.68,21.36,28.35,32.41,52.66,32.41,20.25,0,40.51-3.68,54.87-11.79Z"/><path class="cls-2" d="M203.72.26l43.09,5.52v70c16.2-5.52,35.72-8.1,55.24-8.1,43.09,0,86.54,13.63,93.17,40.14,3.31,12.52,4.78,27.62,4.78,42.35,0,15.1-1.47,29.82-4.78,42.71-7,27.25-50.08,40.88-93.17,40.88-43.46,0-86.54-14-93.53-41.61a148.49,148.49,0,0,1-4.79-41.61Zm43.09,150.24c0,11.78.74,23.94,2.58,33.88,4.05,22.46,28,33.51,52.66,33.51,24.31,0,48.24-11,52.29-33.14a203.61,203.61,0,0,0,2.58-34.61,202.12,202.12,0,0,0-2.58-34.25c-3.68-21.36-28-32.78-52.29-32.78-20.63,0-40.88,4.05-55.24,11.78Z"/></svg>